<mxfile host="app.diagrams.net" agent="Mozilla/5.0 (Windows NT 10.0; Win64; x64) AppleWebKit/537.36 (KHTML, like Gecko) Chrome/131.0.0.0 Safari/537.36" version="26.0.4">
  <diagram id="7ijG_p0IctYbc2rYUjUE" name="Page-1">
    <mxGraphModel dx="1730" dy="1560" grid="1" gridSize="10" guides="1" tooltips="1" connect="1" arrows="1" fold="1" page="1" pageScale="1" pageWidth="850" pageHeight="1100" math="0" shadow="0">
      <root>
        <mxCell id="0" />
        <mxCell id="1" parent="0" />
        <mxCell id="CEb5WgZ9aHTCP-mgNfgS-15" style="edgeStyle=orthogonalEdgeStyle;rounded=0;orthogonalLoop=1;jettySize=auto;html=1;exitX=1;exitY=0.5;exitDx=0;exitDy=0;entryX=0;entryY=0.5;entryDx=0;entryDy=0;" parent="1" source="R4TSVdhuAFYHziErIx7F-1" target="CEb5WgZ9aHTCP-mgNfgS-14" edge="1">
          <mxGeometry relative="1" as="geometry" />
        </mxCell>
        <mxCell id="CEb5WgZ9aHTCP-mgNfgS-37" style="edgeStyle=orthogonalEdgeStyle;rounded=0;orthogonalLoop=1;jettySize=auto;html=1;exitX=0.5;exitY=1;exitDx=0;exitDy=0;entryX=0.5;entryY=0;entryDx=0;entryDy=0;" parent="1" source="R4TSVdhuAFYHziErIx7F-1" target="CEb5WgZ9aHTCP-mgNfgS-36" edge="1">
          <mxGeometry relative="1" as="geometry">
            <Array as="points">
              <mxPoint x="70" y="193" />
              <mxPoint x="80" y="193" />
              <mxPoint x="80" y="247" />
            </Array>
          </mxGeometry>
        </mxCell>
        <mxCell id="CEb5WgZ9aHTCP-mgNfgS-160" style="edgeStyle=orthogonalEdgeStyle;rounded=0;orthogonalLoop=1;jettySize=auto;html=1;exitX=0;exitY=1;exitDx=0;exitDy=0;entryX=1;entryY=0.5;entryDx=0;entryDy=0;" parent="1" source="R4TSVdhuAFYHziErIx7F-1" target="CEb5WgZ9aHTCP-mgNfgS-159" edge="1">
          <mxGeometry relative="1" as="geometry">
            <Array as="points">
              <mxPoint x="30" y="150" />
              <mxPoint x="10" y="150" />
              <mxPoint x="10" y="180" />
              <mxPoint x="-60" y="180" />
            </Array>
          </mxGeometry>
        </mxCell>
        <mxCell id="CEb5WgZ9aHTCP-mgNfgS-184" style="edgeStyle=orthogonalEdgeStyle;rounded=0;orthogonalLoop=1;jettySize=auto;html=1;exitX=0.25;exitY=0;exitDx=0;exitDy=0;entryX=1;entryY=0.5;entryDx=0;entryDy=0;" parent="1" source="R4TSVdhuAFYHziErIx7F-1" target="CEb5WgZ9aHTCP-mgNfgS-183" edge="1">
          <mxGeometry relative="1" as="geometry">
            <Array as="points">
              <mxPoint x="60" y="100" />
              <mxPoint x="60" y="-25" />
            </Array>
          </mxGeometry>
        </mxCell>
        <mxCell id="BTyps2MNp-c__5Y06lRA-10" style="edgeStyle=orthogonalEdgeStyle;rounded=0;orthogonalLoop=1;jettySize=auto;html=1;exitX=0.5;exitY=0;exitDx=0;exitDy=0;entryX=0.5;entryY=1;entryDx=0;entryDy=0;" edge="1" parent="1" source="R4TSVdhuAFYHziErIx7F-1" target="BTyps2MNp-c__5Y06lRA-8">
          <mxGeometry relative="1" as="geometry" />
        </mxCell>
        <object label="Patient Data" id="R4TSVdhuAFYHziErIx7F-1">
          <mxCell style="rounded=0;whiteSpace=wrap;html=1;fillColor=#66FFFF;" parent="1" vertex="1">
            <mxGeometry x="30" y="100" width="80" height="40" as="geometry" />
          </mxCell>
        </object>
        <mxCell id="R4TSVdhuAFYHziErIx7F-3" value="Health Facility" style="rounded=0;whiteSpace=wrap;html=1;fillColor=#66FFFF;" parent="1" vertex="1">
          <mxGeometry x="320" y="100" width="105" height="40" as="geometry" />
        </mxCell>
        <mxCell id="R4TSVdhuAFYHziErIx7F-5" value="Training" style="rounded=0;whiteSpace=wrap;html=1;fillColor=#66FFFF;" parent="1" vertex="1">
          <mxGeometry x="370" y="360" width="80" height="40" as="geometry" />
        </mxCell>
        <mxCell id="CEb5WgZ9aHTCP-mgNfgS-129" style="edgeStyle=orthogonalEdgeStyle;rounded=0;orthogonalLoop=1;jettySize=auto;html=1;exitX=0.5;exitY=1;exitDx=0;exitDy=0;entryX=0.5;entryY=0;entryDx=0;entryDy=0;" parent="1" source="R4TSVdhuAFYHziErIx7F-6" target="CEb5WgZ9aHTCP-mgNfgS-117" edge="1">
          <mxGeometry relative="1" as="geometry" />
        </mxCell>
        <mxCell id="CEb5WgZ9aHTCP-mgNfgS-139" value="1" style="edgeLabel;html=1;align=center;verticalAlign=middle;resizable=0;points=[];" parent="CEb5WgZ9aHTCP-mgNfgS-129" vertex="1" connectable="0">
          <mxGeometry x="0.48" y="4" relative="1" as="geometry">
            <mxPoint x="-19" y="-4" as="offset" />
          </mxGeometry>
        </mxCell>
        <mxCell id="R4TSVdhuAFYHziErIx7F-6" value="Supply Chain" style="rounded=0;whiteSpace=wrap;html=1;fillColor=#66FFFF;" parent="1" vertex="1">
          <mxGeometry x="600" y="-180" width="120" height="45" as="geometry" />
        </mxCell>
        <mxCell id="BTyps2MNp-c__5Y06lRA-1225" style="edgeStyle=orthogonalEdgeStyle;rounded=0;orthogonalLoop=1;jettySize=auto;html=1;exitX=0.25;exitY=1;exitDx=0;exitDy=0;entryX=0.5;entryY=0;entryDx=0;entryDy=0;" edge="1" parent="1" source="R4TSVdhuAFYHziErIx7F-7" target="BTyps2MNp-c__5Y06lRA-211">
          <mxGeometry relative="1" as="geometry" />
        </mxCell>
        <mxCell id="R4TSVdhuAFYHziErIx7F-7" value="Geographical&amp;nbsp;&lt;div&gt;location&lt;/div&gt;" style="rounded=0;whiteSpace=wrap;html=1;fillColor=#66FFFF;" parent="1" vertex="1">
          <mxGeometry x="583.75" y="-510" width="116.25" height="40" as="geometry" />
        </mxCell>
        <mxCell id="BTyps2MNp-c__5Y06lRA-1223" style="edgeStyle=orthogonalEdgeStyle;rounded=0;orthogonalLoop=1;jettySize=auto;html=1;exitX=0.75;exitY=1;exitDx=0;exitDy=0;entryX=0.5;entryY=0;entryDx=0;entryDy=0;" edge="1" parent="1" source="R4TSVdhuAFYHziErIx7F-8" target="BTyps2MNp-c__5Y06lRA-231">
          <mxGeometry relative="1" as="geometry" />
        </mxCell>
        <mxCell id="R4TSVdhuAFYHziErIx7F-8" value="Epidemiological&amp;nbsp;&lt;div&gt;Data&lt;/div&gt;" style="rounded=0;whiteSpace=wrap;html=1;fillColor=#66FFFF;" parent="1" vertex="1">
          <mxGeometry x="345" y="-660" width="150" height="50" as="geometry" />
        </mxCell>
        <mxCell id="BTyps2MNp-c__5Y06lRA-1299" style="edgeStyle=orthogonalEdgeStyle;rounded=0;orthogonalLoop=1;jettySize=auto;html=1;exitX=1;exitY=0.5;exitDx=0;exitDy=0;entryX=0;entryY=0.5;entryDx=0;entryDy=0;" edge="1" parent="1" source="R4TSVdhuAFYHziErIx7F-10" target="BTyps2MNp-c__5Y06lRA-232">
          <mxGeometry relative="1" as="geometry" />
        </mxCell>
        <mxCell id="R4TSVdhuAFYHziErIx7F-10" value="Treatment&amp;nbsp;&lt;div&gt;Outcomes&lt;/div&gt;" style="rounded=0;whiteSpace=wrap;html=1;fillColor=#66FFFF;" parent="1" vertex="1">
          <mxGeometry x="-35" y="-540" width="125" height="40" as="geometry" />
        </mxCell>
        <mxCell id="CEb5WgZ9aHTCP-mgNfgS-133" style="edgeStyle=orthogonalEdgeStyle;rounded=0;orthogonalLoop=1;jettySize=auto;html=1;exitX=0;exitY=1;exitDx=0;exitDy=0;entryX=1;entryY=0.5;entryDx=0;entryDy=0;" parent="1" source="R4TSVdhuAFYHziErIx7F-11" target="CEb5WgZ9aHTCP-mgNfgS-80" edge="1">
          <mxGeometry relative="1" as="geometry" />
        </mxCell>
        <mxCell id="R4TSVdhuAFYHziErIx7F-11" value="Resource" style="rounded=0;whiteSpace=wrap;html=1;fillColor=#66FFFF;" parent="1" vertex="1">
          <mxGeometry x="560" y="40" width="100" height="37.5" as="geometry" />
        </mxCell>
        <mxCell id="R4TSVdhuAFYHziErIx7F-12" value="Treatment" style="whiteSpace=wrap;html=1;fillColor=#66FFFF;" parent="1" vertex="1">
          <mxGeometry x="97.5" y="445" width="85" height="40" as="geometry" />
        </mxCell>
        <mxCell id="BTyps2MNp-c__5Y06lRA-139" style="edgeStyle=orthogonalEdgeStyle;rounded=0;orthogonalLoop=1;jettySize=auto;html=1;exitX=0.5;exitY=0;exitDx=0;exitDy=0;entryX=0.5;entryY=1;entryDx=0;entryDy=0;" edge="1" parent="1" source="R4TSVdhuAFYHziErIx7F-13" target="BTyps2MNp-c__5Y06lRA-136">
          <mxGeometry relative="1" as="geometry" />
        </mxCell>
        <mxCell id="R4TSVdhuAFYHziErIx7F-13" value="Visit Records" style="whiteSpace=wrap;html=1;fillColor=#66FFFF;" parent="1" vertex="1">
          <mxGeometry x="580" y="309.83" width="90" height="38.17" as="geometry" />
        </mxCell>
        <mxCell id="R4TSVdhuAFYHziErIx7F-15" value="System Log" style="whiteSpace=wrap;html=1;fillColor=#66FFFF;" parent="1" vertex="1">
          <mxGeometry x="-250" y="400" width="90" height="40" as="geometry" />
        </mxCell>
        <mxCell id="BTyps2MNp-c__5Y06lRA-168" style="edgeStyle=orthogonalEdgeStyle;rounded=0;orthogonalLoop=1;jettySize=auto;html=1;exitX=0.75;exitY=1;exitDx=0;exitDy=0;entryX=0.5;entryY=0;entryDx=0;entryDy=0;" edge="1" parent="1" source="R4TSVdhuAFYHziErIx7F-18" target="BTyps2MNp-c__5Y06lRA-166">
          <mxGeometry relative="1" as="geometry" />
        </mxCell>
        <mxCell id="R4TSVdhuAFYHziErIx7F-18" value="Interventions" style="whiteSpace=wrap;html=1;fillColor=#66FFFF;" parent="1" vertex="1">
          <mxGeometry x="-290" y="160" width="90" height="40" as="geometry" />
        </mxCell>
        <mxCell id="BTyps2MNp-c__5Y06lRA-172" style="edgeStyle=orthogonalEdgeStyle;rounded=0;orthogonalLoop=1;jettySize=auto;html=1;entryX=0.5;entryY=1;entryDx=0;entryDy=0;" edge="1" parent="1" source="R4TSVdhuAFYHziErIx7F-19" target="BTyps2MNp-c__5Y06lRA-169">
          <mxGeometry relative="1" as="geometry" />
        </mxCell>
        <mxCell id="R4TSVdhuAFYHziErIx7F-19" value="User Role" style="whiteSpace=wrap;html=1;fillColor=#66FFFF;" parent="1" vertex="1">
          <mxGeometry x="-130" y="580" width="90" height="40" as="geometry" />
        </mxCell>
        <mxCell id="R4TSVdhuAFYHziErIx7F-22" value="&lt;u&gt;Patient ID&lt;/u&gt;" style="ellipse;whiteSpace=wrap;html=1;" parent="1" vertex="1">
          <mxGeometry x="140" y="-10" width="72.5" height="35" as="geometry" />
        </mxCell>
        <mxCell id="BTyps2MNp-c__5Y06lRA-45" style="edgeStyle=orthogonalEdgeStyle;rounded=0;orthogonalLoop=1;jettySize=auto;html=1;exitX=1;exitY=1;exitDx=0;exitDy=0;entryX=0.25;entryY=0;entryDx=0;entryDy=0;" edge="1" parent="1" source="R4TSVdhuAFYHziErIx7F-23" target="R4TSVdhuAFYHziErIx7F-1">
          <mxGeometry relative="1" as="geometry" />
        </mxCell>
        <mxCell id="R4TSVdhuAFYHziErIx7F-23" value="First name" style="ellipse;whiteSpace=wrap;html=1;" parent="1" vertex="1">
          <mxGeometry x="-5" y="10" width="50" height="30" as="geometry" />
        </mxCell>
        <mxCell id="BTyps2MNp-c__5Y06lRA-46" style="edgeStyle=orthogonalEdgeStyle;rounded=0;orthogonalLoop=1;jettySize=auto;html=1;exitX=1;exitY=1;exitDx=0;exitDy=0;entryX=0;entryY=0;entryDx=0;entryDy=0;" edge="1" parent="1" source="R4TSVdhuAFYHziErIx7F-24" target="R4TSVdhuAFYHziErIx7F-1">
          <mxGeometry relative="1" as="geometry" />
        </mxCell>
        <mxCell id="R4TSVdhuAFYHziErIx7F-24" value="Last name" style="ellipse;whiteSpace=wrap;html=1;" parent="1" vertex="1">
          <mxGeometry x="-40" y="47.5" width="55" height="30" as="geometry" />
        </mxCell>
        <mxCell id="R4TSVdhuAFYHziErIx7F-51" style="edgeStyle=orthogonalEdgeStyle;rounded=0;orthogonalLoop=1;jettySize=auto;html=1;exitX=0;exitY=1;exitDx=0;exitDy=0;entryX=1;entryY=0;entryDx=0;entryDy=0;" parent="1" source="R4TSVdhuAFYHziErIx7F-25" target="R4TSVdhuAFYHziErIx7F-1" edge="1">
          <mxGeometry relative="1" as="geometry" />
        </mxCell>
        <mxCell id="R4TSVdhuAFYHziErIx7F-25" value="Date of Birht" style="ellipse;whiteSpace=wrap;html=1;" parent="1" vertex="1">
          <mxGeometry x="160" y="40" width="80" height="30" as="geometry" />
        </mxCell>
        <mxCell id="R4TSVdhuAFYHziErIx7F-52" style="edgeStyle=orthogonalEdgeStyle;rounded=0;orthogonalLoop=1;jettySize=auto;html=1;exitX=0;exitY=1;exitDx=0;exitDy=0;entryX=1;entryY=0.5;entryDx=0;entryDy=0;" parent="1" source="R4TSVdhuAFYHziErIx7F-26" target="R4TSVdhuAFYHziErIx7F-1" edge="1">
          <mxGeometry relative="1" as="geometry">
            <Array as="points">
              <mxPoint x="130" y="96" />
              <mxPoint x="130" y="110" />
              <mxPoint x="110" y="110" />
            </Array>
          </mxGeometry>
        </mxCell>
        <mxCell id="R4TSVdhuAFYHziErIx7F-26" value="Gender" style="ellipse;whiteSpace=wrap;html=1;" parent="1" vertex="1">
          <mxGeometry x="150" y="77.5" width="60" height="30" as="geometry" />
        </mxCell>
        <mxCell id="BTyps2MNp-c__5Y06lRA-47" style="edgeStyle=orthogonalEdgeStyle;rounded=0;orthogonalLoop=1;jettySize=auto;html=1;exitX=1;exitY=0.5;exitDx=0;exitDy=0;" edge="1" parent="1" source="R4TSVdhuAFYHziErIx7F-27">
          <mxGeometry relative="1" as="geometry">
            <mxPoint x="30" y="103" as="targetPoint" />
          </mxGeometry>
        </mxCell>
        <mxCell id="R4TSVdhuAFYHziErIx7F-27" value="Phone Number" style="ellipse;whiteSpace=wrap;html=1;" parent="1" vertex="1">
          <mxGeometry x="-60" y="87.5" width="70" height="30" as="geometry" />
        </mxCell>
        <mxCell id="CEb5WgZ9aHTCP-mgNfgS-142" style="edgeStyle=orthogonalEdgeStyle;rounded=0;orthogonalLoop=1;jettySize=auto;html=1;exitX=1;exitY=0;exitDx=0;exitDy=0;entryX=0.25;entryY=1;entryDx=0;entryDy=0;" parent="1" source="R4TSVdhuAFYHziErIx7F-28" target="R4TSVdhuAFYHziErIx7F-1" edge="1">
          <mxGeometry relative="1" as="geometry" />
        </mxCell>
        <mxCell id="R4TSVdhuAFYHziErIx7F-28" value="Next of Kin" style="ellipse;whiteSpace=wrap;html=1;" parent="1" vertex="1">
          <mxGeometry x="-5" y="238" width="70" height="20" as="geometry" />
        </mxCell>
        <mxCell id="R4TSVdhuAFYHziErIx7F-29" value="Location ID" style="ellipse;whiteSpace=wrap;html=1;" parent="1" vertex="1">
          <mxGeometry x="-30" y="188" width="60" height="30" as="geometry" />
        </mxCell>
        <mxCell id="R4TSVdhuAFYHziErIx7F-53" style="edgeStyle=orthogonalEdgeStyle;rounded=0;orthogonalLoop=1;jettySize=auto;html=1;exitX=0;exitY=0.5;exitDx=0;exitDy=0;entryX=1;entryY=0.75;entryDx=0;entryDy=0;" parent="1" source="R4TSVdhuAFYHziErIx7F-30" target="R4TSVdhuAFYHziErIx7F-1" edge="1">
          <mxGeometry relative="1" as="geometry">
            <Array as="points">
              <mxPoint x="115" y="175" />
              <mxPoint x="115" y="160" />
              <mxPoint x="110" y="160" />
            </Array>
          </mxGeometry>
        </mxCell>
        <mxCell id="R4TSVdhuAFYHziErIx7F-30" value="Date Added" style="ellipse;whiteSpace=wrap;html=1;" parent="1" vertex="1">
          <mxGeometry x="135" y="160" width="70" height="30" as="geometry" />
        </mxCell>
        <mxCell id="R4TSVdhuAFYHziErIx7F-31" value="Update&amp;nbsp;&lt;div&gt;Date&lt;/div&gt;" style="ellipse;whiteSpace=wrap;html=1;" parent="1" vertex="1">
          <mxGeometry x="90" y="190" width="60" height="40" as="geometry" />
        </mxCell>
        <mxCell id="R4TSVdhuAFYHziErIx7F-54" style="edgeStyle=orthogonalEdgeStyle;rounded=0;orthogonalLoop=1;jettySize=auto;html=1;exitX=0;exitY=0;exitDx=0;exitDy=0;entryX=0.838;entryY=1;entryDx=0;entryDy=0;entryPerimeter=0;" parent="1" source="R4TSVdhuAFYHziErIx7F-31" target="R4TSVdhuAFYHziErIx7F-1" edge="1">
          <mxGeometry relative="1" as="geometry" />
        </mxCell>
        <mxCell id="CEb5WgZ9aHTCP-mgNfgS-49" style="edgeStyle=orthogonalEdgeStyle;rounded=0;orthogonalLoop=1;jettySize=auto;html=1;exitX=0;exitY=0;exitDx=0;exitDy=0;entryX=1;entryY=1;entryDx=0;entryDy=0;" parent="1" source="R4TSVdhuAFYHziErIx7F-59" target="R4TSVdhuAFYHziErIx7F-3" edge="1">
          <mxGeometry relative="1" as="geometry" />
        </mxCell>
        <mxCell id="R4TSVdhuAFYHziErIx7F-59" value="Capacity" style="ellipse;whiteSpace=wrap;html=1;" parent="1" vertex="1">
          <mxGeometry x="440" y="165" width="50" height="30" as="geometry" />
        </mxCell>
        <mxCell id="CEb5WgZ9aHTCP-mgNfgS-48" style="edgeStyle=orthogonalEdgeStyle;rounded=0;orthogonalLoop=1;jettySize=auto;html=1;exitX=0;exitY=0;exitDx=0;exitDy=0;entryX=0.75;entryY=1;entryDx=0;entryDy=0;" parent="1" source="R4TSVdhuAFYHziErIx7F-60" target="R4TSVdhuAFYHziErIx7F-3" edge="1">
          <mxGeometry relative="1" as="geometry" />
        </mxCell>
        <mxCell id="R4TSVdhuAFYHziErIx7F-60" value="Contact Details" style="ellipse;whiteSpace=wrap;html=1;" parent="1" vertex="1">
          <mxGeometry x="402.25" y="193" width="45" height="30" as="geometry" />
        </mxCell>
        <mxCell id="CEb5WgZ9aHTCP-mgNfgS-56" style="edgeStyle=orthogonalEdgeStyle;rounded=0;orthogonalLoop=1;jettySize=auto;html=1;exitX=0;exitY=1;exitDx=0;exitDy=0;entryX=1;entryY=0;entryDx=0;entryDy=0;" parent="1" source="R4TSVdhuAFYHziErIx7F-61" target="R4TSVdhuAFYHziErIx7F-3" edge="1">
          <mxGeometry relative="1" as="geometry" />
        </mxCell>
        <mxCell id="R4TSVdhuAFYHziErIx7F-61" value="Facility Type" style="ellipse;whiteSpace=wrap;html=1;" parent="1" vertex="1">
          <mxGeometry x="445" y="57.5" width="50" height="30" as="geometry" />
        </mxCell>
        <mxCell id="R4TSVdhuAFYHziErIx7F-62" value="Location ID" style="ellipse;whiteSpace=wrap;html=1;" parent="1" vertex="1">
          <mxGeometry x="410" y="30" width="70" height="22.5" as="geometry" />
        </mxCell>
        <mxCell id="BTyps2MNp-c__5Y06lRA-134" style="edgeStyle=orthogonalEdgeStyle;rounded=0;orthogonalLoop=1;jettySize=auto;html=1;exitX=0.5;exitY=0;exitDx=0;exitDy=0;entryX=0.25;entryY=1;entryDx=0;entryDy=0;" edge="1" parent="1" source="R4TSVdhuAFYHziErIx7F-63" target="R4TSVdhuAFYHziErIx7F-3">
          <mxGeometry relative="1" as="geometry" />
        </mxCell>
        <mxCell id="R4TSVdhuAFYHziErIx7F-63" value="Date Added" style="ellipse;whiteSpace=wrap;html=1;" parent="1" vertex="1">
          <mxGeometry x="327.5" y="170" width="50" height="30" as="geometry" />
        </mxCell>
        <mxCell id="R4TSVdhuAFYHziErIx7F-64" value="&lt;u&gt;Facility ID&lt;/u&gt;" style="ellipse;whiteSpace=wrap;html=1;" parent="1" vertex="1">
          <mxGeometry x="307.5" y="-7.5" width="70" height="37.5" as="geometry" />
        </mxCell>
        <mxCell id="BTyps2MNp-c__5Y06lRA-68" style="edgeStyle=orthogonalEdgeStyle;rounded=0;orthogonalLoop=1;jettySize=auto;html=1;exitX=1;exitY=1;exitDx=0;exitDy=0;entryX=0.25;entryY=0;entryDx=0;entryDy=0;" edge="1" parent="1" source="R4TSVdhuAFYHziErIx7F-65" target="R4TSVdhuAFYHziErIx7F-3">
          <mxGeometry relative="1" as="geometry" />
        </mxCell>
        <mxCell id="R4TSVdhuAFYHziErIx7F-65" value="Facility Name" style="ellipse;whiteSpace=wrap;html=1;" parent="1" vertex="1">
          <mxGeometry x="295" y="50" width="65" height="30" as="geometry" />
        </mxCell>
        <mxCell id="CEb5WgZ9aHTCP-mgNfgS-46" style="edgeStyle=orthogonalEdgeStyle;rounded=0;orthogonalLoop=1;jettySize=auto;html=1;exitX=1;exitY=0;exitDx=0;exitDy=0;entryX=0;entryY=1;entryDx=0;entryDy=0;" parent="1" source="R4TSVdhuAFYHziErIx7F-66" target="R4TSVdhuAFYHziErIx7F-3" edge="1">
          <mxGeometry relative="1" as="geometry" />
        </mxCell>
        <mxCell id="R4TSVdhuAFYHziErIx7F-66" value="Facility Head" style="ellipse;whiteSpace=wrap;html=1;" parent="1" vertex="1">
          <mxGeometry x="260" y="150" width="62.5" height="30" as="geometry" />
        </mxCell>
        <mxCell id="CEb5WgZ9aHTCP-mgNfgS-16" style="edgeStyle=orthogonalEdgeStyle;rounded=0;orthogonalLoop=1;jettySize=auto;html=1;exitX=1;exitY=0.5;exitDx=0;exitDy=0;entryX=0;entryY=0.75;entryDx=0;entryDy=0;" parent="1" source="CEb5WgZ9aHTCP-mgNfgS-14" target="R4TSVdhuAFYHziErIx7F-3" edge="1">
          <mxGeometry relative="1" as="geometry" />
        </mxCell>
        <mxCell id="CEb5WgZ9aHTCP-mgNfgS-14" value="Access" style="rhombus;whiteSpace=wrap;html=1;fillColor=#FFFF33;" parent="1" vertex="1">
          <mxGeometry x="200" y="100" width="60" height="65" as="geometry" />
        </mxCell>
        <mxCell id="CEb5WgZ9aHTCP-mgNfgS-17" value="N" style="text;html=1;align=center;verticalAlign=middle;resizable=0;points=[];autosize=1;strokeColor=none;fillColor=none;" parent="1" vertex="1">
          <mxGeometry x="170" y="110" width="30" height="30" as="geometry" />
        </mxCell>
        <mxCell id="CEb5WgZ9aHTCP-mgNfgS-18" value="1" style="text;html=1;align=center;verticalAlign=middle;resizable=0;points=[];autosize=1;strokeColor=none;fillColor=none;" parent="1" vertex="1">
          <mxGeometry x="250" y="110" width="30" height="30" as="geometry" />
        </mxCell>
        <mxCell id="BTyps2MNp-c__5Y06lRA-1284" style="edgeStyle=orthogonalEdgeStyle;rounded=0;orthogonalLoop=1;jettySize=auto;html=1;exitX=1;exitY=0;exitDx=0;exitDy=0;entryX=0;entryY=0.25;entryDx=0;entryDy=0;" edge="1" parent="1" source="CEb5WgZ9aHTCP-mgNfgS-19" target="R4TSVdhuAFYHziErIx7F-12">
          <mxGeometry relative="1" as="geometry" />
        </mxCell>
        <mxCell id="CEb5WgZ9aHTCP-mgNfgS-19" value="&lt;u&gt;Treatment ID&lt;/u&gt;" style="ellipse;whiteSpace=wrap;html=1;" parent="1" vertex="1">
          <mxGeometry x="-10" y="433" width="75" height="40" as="geometry" />
        </mxCell>
        <mxCell id="CEb5WgZ9aHTCP-mgNfgS-22" value="Side Effects" style="ellipse;whiteSpace=wrap;html=1;" parent="1" vertex="1">
          <mxGeometry x="212.5" y="485" width="62.5" height="30" as="geometry" />
        </mxCell>
        <mxCell id="BTyps2MNp-c__5Y06lRA-1278" style="edgeStyle=orthogonalEdgeStyle;rounded=0;orthogonalLoop=1;jettySize=auto;html=1;exitX=1;exitY=0;exitDx=0;exitDy=0;entryX=0;entryY=1;entryDx=0;entryDy=0;" edge="1" parent="1" source="CEb5WgZ9aHTCP-mgNfgS-23" target="R4TSVdhuAFYHziErIx7F-12">
          <mxGeometry relative="1" as="geometry" />
        </mxCell>
        <mxCell id="CEb5WgZ9aHTCP-mgNfgS-23" value="Date Added" style="ellipse;whiteSpace=wrap;html=1;" parent="1" vertex="1">
          <mxGeometry x="25" y="498" width="65" height="30" as="geometry" />
        </mxCell>
        <mxCell id="BTyps2MNp-c__5Y06lRA-1279" style="edgeStyle=orthogonalEdgeStyle;rounded=0;orthogonalLoop=1;jettySize=auto;html=1;exitX=1;exitY=0;exitDx=0;exitDy=0;entryX=0.25;entryY=1;entryDx=0;entryDy=0;" edge="1" parent="1" source="CEb5WgZ9aHTCP-mgNfgS-25" target="R4TSVdhuAFYHziErIx7F-12">
          <mxGeometry relative="1" as="geometry" />
        </mxCell>
        <mxCell id="CEb5WgZ9aHTCP-mgNfgS-25" value="Update Date" style="ellipse;whiteSpace=wrap;html=1;" parent="1" vertex="1">
          <mxGeometry x="60" y="540" width="65" height="30" as="geometry" />
        </mxCell>
        <mxCell id="BTyps2MNp-c__5Y06lRA-1280" style="edgeStyle=orthogonalEdgeStyle;rounded=0;orthogonalLoop=1;jettySize=auto;html=1;exitX=0;exitY=0;exitDx=0;exitDy=0;entryX=0.5;entryY=1;entryDx=0;entryDy=0;" edge="1" parent="1" source="CEb5WgZ9aHTCP-mgNfgS-26" target="R4TSVdhuAFYHziErIx7F-12">
          <mxGeometry relative="1" as="geometry" />
        </mxCell>
        <mxCell id="CEb5WgZ9aHTCP-mgNfgS-26" value="Dosage" style="ellipse;whiteSpace=wrap;html=1;rotation=-15;" parent="1" vertex="1">
          <mxGeometry x="140" y="528" width="70" height="30" as="geometry" />
        </mxCell>
        <mxCell id="BTyps2MNp-c__5Y06lRA-1285" style="edgeStyle=orthogonalEdgeStyle;rounded=0;orthogonalLoop=1;jettySize=auto;html=1;exitX=0.5;exitY=1;exitDx=0;exitDy=0;entryX=0.25;entryY=0;entryDx=0;entryDy=0;" edge="1" parent="1" source="CEb5WgZ9aHTCP-mgNfgS-36" target="R4TSVdhuAFYHziErIx7F-12">
          <mxGeometry relative="1" as="geometry" />
        </mxCell>
        <mxCell id="CEb5WgZ9aHTCP-mgNfgS-36" value="Undergoes" style="rhombus;whiteSpace=wrap;html=1;rotation=0;fillColor=#FFFF33;" parent="1" vertex="1">
          <mxGeometry x="56.25" y="306.83" width="72.5" height="65" as="geometry" />
        </mxCell>
        <mxCell id="CEb5WgZ9aHTCP-mgNfgS-39" value="N" style="text;html=1;align=center;verticalAlign=middle;resizable=0;points=[];autosize=1;strokeColor=none;fillColor=none;" parent="1" vertex="1">
          <mxGeometry x="90" y="371.83" width="30" height="30" as="geometry" />
        </mxCell>
        <mxCell id="CEb5WgZ9aHTCP-mgNfgS-41" value="1" style="text;html=1;align=center;verticalAlign=middle;resizable=0;points=[];autosize=1;strokeColor=none;fillColor=none;" parent="1" vertex="1">
          <mxGeometry x="90" y="270" width="30" height="30" as="geometry" />
        </mxCell>
        <mxCell id="CEb5WgZ9aHTCP-mgNfgS-42" value="Desc" style="ellipse;whiteSpace=wrap;html=1;" parent="1" vertex="1">
          <mxGeometry x="680" y="-20" width="60" height="30" as="geometry" />
        </mxCell>
        <mxCell id="CEb5WgZ9aHTCP-mgNfgS-92" style="edgeStyle=orthogonalEdgeStyle;rounded=0;orthogonalLoop=1;jettySize=auto;html=1;exitX=0;exitY=0.5;exitDx=0;exitDy=0;entryX=1;entryY=0.75;entryDx=0;entryDy=0;" parent="1" source="CEb5WgZ9aHTCP-mgNfgS-43" target="R4TSVdhuAFYHziErIx7F-11" edge="1">
          <mxGeometry relative="1" as="geometry" />
        </mxCell>
        <mxCell id="CEb5WgZ9aHTCP-mgNfgS-43" value="Quantity" style="ellipse;whiteSpace=wrap;html=1;" parent="1" vertex="1">
          <mxGeometry x="690" y="60" width="70" height="27.5" as="geometry" />
        </mxCell>
        <mxCell id="CEb5WgZ9aHTCP-mgNfgS-44" value="Date&lt;div&gt;Added&lt;/div&gt;" style="ellipse;whiteSpace=wrap;html=1;" parent="1" vertex="1">
          <mxGeometry x="545" y="-35" width="60" height="35" as="geometry" />
        </mxCell>
        <mxCell id="CEb5WgZ9aHTCP-mgNfgS-113" style="edgeStyle=orthogonalEdgeStyle;rounded=0;orthogonalLoop=1;jettySize=auto;html=1;exitX=1;exitY=0.5;exitDx=0;exitDy=0;entryX=0.25;entryY=0;entryDx=0;entryDy=0;" parent="1" source="CEb5WgZ9aHTCP-mgNfgS-45" target="R4TSVdhuAFYHziErIx7F-11" edge="1">
          <mxGeometry relative="1" as="geometry" />
        </mxCell>
        <mxCell id="CEb5WgZ9aHTCP-mgNfgS-45" value="Update&lt;div&gt;Date&lt;/div&gt;" style="ellipse;whiteSpace=wrap;html=1;" parent="1" vertex="1">
          <mxGeometry x="490" y="-5" width="60" height="30" as="geometry" />
        </mxCell>
        <mxCell id="CEb5WgZ9aHTCP-mgNfgS-93" style="edgeStyle=orthogonalEdgeStyle;rounded=0;orthogonalLoop=1;jettySize=auto;html=1;exitX=0;exitY=0.5;exitDx=0;exitDy=0;entryX=1;entryY=0.25;entryDx=0;entryDy=0;" parent="1" source="CEb5WgZ9aHTCP-mgNfgS-55" target="R4TSVdhuAFYHziErIx7F-11" edge="1">
          <mxGeometry relative="1" as="geometry" />
        </mxCell>
        <mxCell id="CEb5WgZ9aHTCP-mgNfgS-55" value="Last&lt;div&gt;Updated&lt;/div&gt;" style="ellipse;whiteSpace=wrap;html=1;" parent="1" vertex="1">
          <mxGeometry x="700" y="25" width="70" height="35" as="geometry" />
        </mxCell>
        <mxCell id="CEb5WgZ9aHTCP-mgNfgS-60" value="&lt;u&gt;Resource ID&lt;/u&gt;" style="ellipse;whiteSpace=wrap;html=1;" parent="1" vertex="1">
          <mxGeometry x="650" y="90" width="70" height="30" as="geometry" />
        </mxCell>
        <mxCell id="CEb5WgZ9aHTCP-mgNfgS-114" style="edgeStyle=orthogonalEdgeStyle;rounded=0;orthogonalLoop=1;jettySize=auto;html=1;exitX=1;exitY=0;exitDx=0;exitDy=0;entryX=0;entryY=0;entryDx=0;entryDy=0;" parent="1" source="CEb5WgZ9aHTCP-mgNfgS-61" target="R4TSVdhuAFYHziErIx7F-11" edge="1">
          <mxGeometry relative="1" as="geometry" />
        </mxCell>
        <mxCell id="CEb5WgZ9aHTCP-mgNfgS-61" value="Resrc Type" style="ellipse;whiteSpace=wrap;html=1;" parent="1" vertex="1">
          <mxGeometry x="490" y="32.5" width="60" height="30" as="geometry" />
        </mxCell>
        <mxCell id="CEb5WgZ9aHTCP-mgNfgS-62" value="Facility ID" style="ellipse;whiteSpace=wrap;html=1;" parent="1" vertex="1">
          <mxGeometry x="590" y="110" width="70" height="30" as="geometry" />
        </mxCell>
        <mxCell id="CEb5WgZ9aHTCP-mgNfgS-134" style="edgeStyle=orthogonalEdgeStyle;rounded=0;orthogonalLoop=1;jettySize=auto;html=1;exitX=0;exitY=0.5;exitDx=0;exitDy=0;entryX=1;entryY=0.5;entryDx=0;entryDy=0;" parent="1" source="CEb5WgZ9aHTCP-mgNfgS-80" target="R4TSVdhuAFYHziErIx7F-3" edge="1">
          <mxGeometry relative="1" as="geometry" />
        </mxCell>
        <mxCell id="CEb5WgZ9aHTCP-mgNfgS-80" value="Manages" style="rhombus;whiteSpace=wrap;html=1;fillColor=#FFFF33;" parent="1" vertex="1">
          <mxGeometry x="460" y="90" width="80" height="50" as="geometry" />
        </mxCell>
        <mxCell id="CEb5WgZ9aHTCP-mgNfgS-90" style="edgeStyle=orthogonalEdgeStyle;rounded=0;orthogonalLoop=1;jettySize=auto;html=1;exitX=0;exitY=0;exitDx=0;exitDy=0;entryX=0.411;entryY=0.945;entryDx=0;entryDy=0;entryPerimeter=0;" parent="1" source="CEb5WgZ9aHTCP-mgNfgS-62" target="R4TSVdhuAFYHziErIx7F-11" edge="1">
          <mxGeometry relative="1" as="geometry" />
        </mxCell>
        <mxCell id="CEb5WgZ9aHTCP-mgNfgS-91" style="edgeStyle=orthogonalEdgeStyle;rounded=0;orthogonalLoop=1;jettySize=auto;html=1;exitX=0;exitY=0;exitDx=0;exitDy=0;entryX=0.889;entryY=1.091;entryDx=0;entryDy=0;entryPerimeter=0;" parent="1" source="CEb5WgZ9aHTCP-mgNfgS-60" target="R4TSVdhuAFYHziErIx7F-11" edge="1">
          <mxGeometry relative="1" as="geometry" />
        </mxCell>
        <mxCell id="CEb5WgZ9aHTCP-mgNfgS-102" style="edgeStyle=orthogonalEdgeStyle;rounded=0;orthogonalLoop=1;jettySize=auto;html=1;exitX=0;exitY=1;exitDx=0;exitDy=0;entryX=0.933;entryY=0.073;entryDx=0;entryDy=0;entryPerimeter=0;" parent="1" source="CEb5WgZ9aHTCP-mgNfgS-42" target="R4TSVdhuAFYHziErIx7F-11" edge="1">
          <mxGeometry relative="1" as="geometry" />
        </mxCell>
        <mxCell id="BTyps2MNp-c__5Y06lRA-208" style="edgeStyle=orthogonalEdgeStyle;rounded=0;orthogonalLoop=1;jettySize=auto;html=1;exitX=0;exitY=1;exitDx=0;exitDy=0;entryX=1;entryY=0.75;entryDx=0;entryDy=0;" edge="1" parent="1" source="CEb5WgZ9aHTCP-mgNfgS-103" target="R4TSVdhuAFYHziErIx7F-6">
          <mxGeometry relative="1" as="geometry" />
        </mxCell>
        <mxCell id="CEb5WgZ9aHTCP-mgNfgS-103" value="Quantity&lt;div&gt;Shipped&lt;/div&gt;" style="ellipse;whiteSpace=wrap;html=1;" parent="1" vertex="1">
          <mxGeometry x="760" y="-180" width="80" height="30" as="geometry" />
        </mxCell>
        <mxCell id="CEb5WgZ9aHTCP-mgNfgS-104" value="Shipment&lt;div&gt;Date&lt;/div&gt;" style="ellipse;whiteSpace=wrap;html=1;" parent="1" vertex="1">
          <mxGeometry x="760" y="-142.5" width="70" height="35" as="geometry" />
        </mxCell>
        <mxCell id="BTyps2MNp-c__5Y06lRA-209" style="edgeStyle=orthogonalEdgeStyle;rounded=0;orthogonalLoop=1;jettySize=auto;html=1;exitX=0;exitY=1;exitDx=0;exitDy=0;entryX=1;entryY=0.5;entryDx=0;entryDy=0;" edge="1" parent="1" source="CEb5WgZ9aHTCP-mgNfgS-105" target="R4TSVdhuAFYHziErIx7F-6">
          <mxGeometry relative="1" as="geometry" />
        </mxCell>
        <mxCell id="CEb5WgZ9aHTCP-mgNfgS-105" value="Facility ID" style="ellipse;whiteSpace=wrap;html=1;" parent="1" vertex="1">
          <mxGeometry x="765" y="-220" width="70" height="30" as="geometry" />
        </mxCell>
        <mxCell id="BTyps2MNp-c__5Y06lRA-204" style="edgeStyle=orthogonalEdgeStyle;rounded=0;orthogonalLoop=1;jettySize=auto;html=1;exitX=0;exitY=1;exitDx=0;exitDy=0;entryX=1;entryY=0;entryDx=0;entryDy=0;" edge="1" parent="1" source="CEb5WgZ9aHTCP-mgNfgS-106" target="R4TSVdhuAFYHziErIx7F-6">
          <mxGeometry relative="1" as="geometry">
            <Array as="points">
              <mxPoint x="730" y="-234" />
              <mxPoint x="730" y="-180" />
            </Array>
          </mxGeometry>
        </mxCell>
        <mxCell id="CEb5WgZ9aHTCP-mgNfgS-106" value="Resource ID" style="ellipse;whiteSpace=wrap;html=1;" parent="1" vertex="1">
          <mxGeometry x="750" y="-260" width="80" height="30" as="geometry" />
        </mxCell>
        <mxCell id="CEb5WgZ9aHTCP-mgNfgS-107" value="&lt;u&gt;Supply ID&lt;/u&gt;" style="ellipse;whiteSpace=wrap;html=1;" parent="1" vertex="1">
          <mxGeometry x="710" y="-300" width="70" height="40" as="geometry" />
        </mxCell>
        <mxCell id="CEb5WgZ9aHTCP-mgNfgS-108" value="Expected&lt;div&gt;Arrival Date&lt;/div&gt;" style="ellipse;whiteSpace=wrap;html=1;" parent="1" vertex="1">
          <mxGeometry x="635" y="-277.5" width="80" height="35" as="geometry" />
        </mxCell>
        <mxCell id="CEb5WgZ9aHTCP-mgNfgS-109" value="Shipped By" style="ellipse;whiteSpace=wrap;html=1;" parent="1" vertex="1">
          <mxGeometry x="572.5" y="-250" width="75" height="40" as="geometry" />
        </mxCell>
        <mxCell id="CEb5WgZ9aHTCP-mgNfgS-110" value="Status" style="ellipse;whiteSpace=wrap;html=1;rotation=35;" parent="1" vertex="1">
          <mxGeometry x="740" y="-100" width="70" height="40" as="geometry" />
        </mxCell>
        <mxCell id="BTyps2MNp-c__5Y06lRA-205" style="edgeStyle=orthogonalEdgeStyle;rounded=0;orthogonalLoop=1;jettySize=auto;html=1;exitX=0;exitY=0.5;exitDx=0;exitDy=0;entryX=0.75;entryY=1;entryDx=0;entryDy=0;" edge="1" parent="1" source="CEb5WgZ9aHTCP-mgNfgS-111" target="R4TSVdhuAFYHziErIx7F-6">
          <mxGeometry relative="1" as="geometry">
            <Array as="points">
              <mxPoint x="680" y="-96" />
              <mxPoint x="680" y="-127" />
              <mxPoint x="690" y="-127" />
            </Array>
          </mxGeometry>
        </mxCell>
        <mxCell id="CEb5WgZ9aHTCP-mgNfgS-111" value="Update Dtae" style="ellipse;whiteSpace=wrap;html=1;rotation=55;" parent="1" vertex="1">
          <mxGeometry x="685" y="-85" width="75" height="40" as="geometry" />
        </mxCell>
        <mxCell id="CEb5WgZ9aHTCP-mgNfgS-112" style="edgeStyle=orthogonalEdgeStyle;rounded=0;orthogonalLoop=1;jettySize=auto;html=1;exitX=1;exitY=1;exitDx=0;exitDy=0;entryX=0.422;entryY=-0.036;entryDx=0;entryDy=0;entryPerimeter=0;" parent="1" source="CEb5WgZ9aHTCP-mgNfgS-44" target="R4TSVdhuAFYHziErIx7F-11" edge="1">
          <mxGeometry relative="1" as="geometry" />
        </mxCell>
        <mxCell id="CEb5WgZ9aHTCP-mgNfgS-117" value="Provides" style="rhombus;whiteSpace=wrap;html=1;fillColor=#FFFF33;" parent="1" vertex="1">
          <mxGeometry x="615" y="-107.5" width="80" height="80" as="geometry" />
        </mxCell>
        <mxCell id="CEb5WgZ9aHTCP-mgNfgS-131" style="edgeStyle=orthogonalEdgeStyle;rounded=0;orthogonalLoop=1;jettySize=auto;html=1;exitX=0.5;exitY=1;exitDx=0;exitDy=0;" parent="1" source="CEb5WgZ9aHTCP-mgNfgS-117" edge="1">
          <mxGeometry relative="1" as="geometry">
            <mxPoint x="630" y="40" as="targetPoint" />
          </mxGeometry>
        </mxCell>
        <mxCell id="CEb5WgZ9aHTCP-mgNfgS-135" value="1" style="text;html=1;align=center;verticalAlign=middle;resizable=0;points=[];autosize=1;strokeColor=none;fillColor=none;" parent="1" vertex="1">
          <mxGeometry x="435" y="90" width="30" height="30" as="geometry" />
        </mxCell>
        <mxCell id="CEb5WgZ9aHTCP-mgNfgS-136" value="N" style="text;html=1;align=center;verticalAlign=middle;resizable=0;points=[];autosize=1;strokeColor=none;fillColor=none;" parent="1" vertex="1">
          <mxGeometry x="525" y="88" width="30" height="30" as="geometry" />
        </mxCell>
        <mxCell id="CEb5WgZ9aHTCP-mgNfgS-138" value="N" style="text;html=1;align=center;verticalAlign=middle;resizable=0;points=[];autosize=1;strokeColor=none;fillColor=none;" parent="1" vertex="1">
          <mxGeometry x="625" y="-35" width="30" height="30" as="geometry" />
        </mxCell>
        <mxCell id="CEb5WgZ9aHTCP-mgNfgS-141" style="edgeStyle=orthogonalEdgeStyle;rounded=0;orthogonalLoop=1;jettySize=auto;html=1;exitX=1;exitY=0;exitDx=0;exitDy=0;entryX=0.175;entryY=1.05;entryDx=0;entryDy=0;entryPerimeter=0;" parent="1" source="R4TSVdhuAFYHziErIx7F-29" target="R4TSVdhuAFYHziErIx7F-1" edge="1">
          <mxGeometry relative="1" as="geometry" />
        </mxCell>
        <mxCell id="CEb5WgZ9aHTCP-mgNfgS-164" style="edgeStyle=orthogonalEdgeStyle;rounded=0;orthogonalLoop=1;jettySize=auto;html=1;exitX=0;exitY=1;exitDx=0;exitDy=0;entryX=0.75;entryY=0;entryDx=0;entryDy=0;" parent="1" source="CEb5WgZ9aHTCP-mgNfgS-143" target="R4TSVdhuAFYHziErIx7F-18" edge="1">
          <mxGeometry relative="1" as="geometry" />
        </mxCell>
        <mxCell id="CEb5WgZ9aHTCP-mgNfgS-143" value="Type" style="ellipse;whiteSpace=wrap;html=1;" parent="1" vertex="1">
          <mxGeometry x="-220" y="90" width="70" height="30" as="geometry" />
        </mxCell>
        <mxCell id="CEb5WgZ9aHTCP-mgNfgS-166" style="edgeStyle=orthogonalEdgeStyle;rounded=0;orthogonalLoop=1;jettySize=auto;html=1;exitX=0.5;exitY=0;exitDx=0;exitDy=0;entryX=0.5;entryY=1;entryDx=0;entryDy=0;" parent="1" source="CEb5WgZ9aHTCP-mgNfgS-145" target="R4TSVdhuAFYHziErIx7F-18" edge="1">
          <mxGeometry relative="1" as="geometry" />
        </mxCell>
        <mxCell id="CEb5WgZ9aHTCP-mgNfgS-145" value="Update&lt;div&gt;Date&lt;/div&gt;" style="ellipse;whiteSpace=wrap;html=1;" parent="1" vertex="1">
          <mxGeometry x="-310" y="258" width="70" height="30" as="geometry" />
        </mxCell>
        <mxCell id="CEb5WgZ9aHTCP-mgNfgS-162" style="edgeStyle=orthogonalEdgeStyle;rounded=0;orthogonalLoop=1;jettySize=auto;html=1;exitX=1;exitY=1;exitDx=0;exitDy=0;entryX=0;entryY=0;entryDx=0;entryDy=0;" parent="1" source="CEb5WgZ9aHTCP-mgNfgS-147" target="R4TSVdhuAFYHziErIx7F-18" edge="1">
          <mxGeometry relative="1" as="geometry" />
        </mxCell>
        <mxCell id="CEb5WgZ9aHTCP-mgNfgS-147" value="Location ID" style="ellipse;whiteSpace=wrap;html=1;" parent="1" vertex="1">
          <mxGeometry x="-370" y="90" width="60" height="40" as="geometry" />
        </mxCell>
        <mxCell id="CEb5WgZ9aHTCP-mgNfgS-163" style="edgeStyle=orthogonalEdgeStyle;rounded=0;orthogonalLoop=1;jettySize=auto;html=1;exitX=0.5;exitY=1;exitDx=0;exitDy=0;entryX=0.25;entryY=0;entryDx=0;entryDy=0;" parent="1" source="CEb5WgZ9aHTCP-mgNfgS-148" target="R4TSVdhuAFYHziErIx7F-18" edge="1">
          <mxGeometry relative="1" as="geometry" />
        </mxCell>
        <mxCell id="CEb5WgZ9aHTCP-mgNfgS-148" value="&lt;u&gt;Intervention ID&lt;/u&gt;" style="ellipse;whiteSpace=wrap;html=1;" parent="1" vertex="1">
          <mxGeometry x="-300" y="70" width="70" height="40" as="geometry" />
        </mxCell>
        <mxCell id="CEb5WgZ9aHTCP-mgNfgS-170" style="edgeStyle=orthogonalEdgeStyle;rounded=0;orthogonalLoop=1;jettySize=auto;html=1;exitX=1;exitY=1;exitDx=0;exitDy=0;entryX=0;entryY=0.5;entryDx=0;entryDy=0;" parent="1" source="CEb5WgZ9aHTCP-mgNfgS-149" target="R4TSVdhuAFYHziErIx7F-18" edge="1">
          <mxGeometry relative="1" as="geometry" />
        </mxCell>
        <mxCell id="CEb5WgZ9aHTCP-mgNfgS-149" value="End Date" style="ellipse;whiteSpace=wrap;html=1;" parent="1" vertex="1">
          <mxGeometry x="-410" y="130" width="70" height="30" as="geometry" />
        </mxCell>
        <mxCell id="CEb5WgZ9aHTCP-mgNfgS-150" value="Date Added" style="ellipse;whiteSpace=wrap;html=1;" parent="1" vertex="1">
          <mxGeometry x="-190" y="228" width="70" height="30" as="geometry" />
        </mxCell>
        <mxCell id="CEb5WgZ9aHTCP-mgNfgS-169" style="edgeStyle=orthogonalEdgeStyle;rounded=0;orthogonalLoop=1;jettySize=auto;html=1;exitX=1;exitY=0.5;exitDx=0;exitDy=0;entryX=0;entryY=0.75;entryDx=0;entryDy=0;" parent="1" source="CEb5WgZ9aHTCP-mgNfgS-151" target="R4TSVdhuAFYHziErIx7F-18" edge="1">
          <mxGeometry relative="1" as="geometry" />
        </mxCell>
        <mxCell id="CEb5WgZ9aHTCP-mgNfgS-151" value="Start Date" style="ellipse;whiteSpace=wrap;html=1;" parent="1" vertex="1">
          <mxGeometry x="-410" y="175" width="70" height="30" as="geometry" />
        </mxCell>
        <mxCell id="CEb5WgZ9aHTCP-mgNfgS-161" style="edgeStyle=orthogonalEdgeStyle;rounded=0;orthogonalLoop=1;jettySize=auto;html=1;exitX=0;exitY=0.5;exitDx=0;exitDy=0;entryX=1;entryY=0.5;entryDx=0;entryDy=0;" parent="1" source="CEb5WgZ9aHTCP-mgNfgS-159" target="R4TSVdhuAFYHziErIx7F-18" edge="1">
          <mxGeometry relative="1" as="geometry" />
        </mxCell>
        <mxCell id="CEb5WgZ9aHTCP-mgNfgS-159" value="A patient&amp;nbsp;&lt;div&gt;undergoes&lt;/div&gt;" style="rhombus;whiteSpace=wrap;html=1;fillColor=#FFFF33;" parent="1" vertex="1">
          <mxGeometry x="-150" y="150" width="90" height="90" as="geometry" />
        </mxCell>
        <mxCell id="CEb5WgZ9aHTCP-mgNfgS-165" style="edgeStyle=orthogonalEdgeStyle;rounded=0;orthogonalLoop=1;jettySize=auto;html=1;exitX=0;exitY=0;exitDx=0;exitDy=0;entryX=0.878;entryY=0.975;entryDx=0;entryDy=0;entryPerimeter=0;" parent="1" source="CEb5WgZ9aHTCP-mgNfgS-150" target="R4TSVdhuAFYHziErIx7F-18" edge="1">
          <mxGeometry relative="1" as="geometry" />
        </mxCell>
        <mxCell id="CEb5WgZ9aHTCP-mgNfgS-171" value="1" style="text;html=1;align=center;verticalAlign=middle;resizable=0;points=[];autosize=1;strokeColor=none;fillColor=none;" parent="1" vertex="1">
          <mxGeometry x="-65" y="158" width="30" height="30" as="geometry" />
        </mxCell>
        <mxCell id="CEb5WgZ9aHTCP-mgNfgS-172" value="N" style="text;html=1;align=center;verticalAlign=middle;resizable=0;points=[];autosize=1;strokeColor=none;fillColor=none;" parent="1" vertex="1">
          <mxGeometry x="-180" y="170" width="30" height="30" as="geometry" />
        </mxCell>
        <mxCell id="CEb5WgZ9aHTCP-mgNfgS-173" value="Referral" style="whiteSpace=wrap;html=1;fillColor=#66FFFF;" parent="1" vertex="1">
          <mxGeometry x="-255" y="-50" width="140" height="40" as="geometry" />
        </mxCell>
        <mxCell id="CEb5WgZ9aHTCP-mgNfgS-175" value="Referred from" style="ellipse;whiteSpace=wrap;html=1;" parent="1" vertex="1">
          <mxGeometry x="-325" y="-112.5" width="70" height="40" as="geometry" />
        </mxCell>
        <mxCell id="CEb5WgZ9aHTCP-mgNfgS-193" style="edgeStyle=orthogonalEdgeStyle;rounded=0;orthogonalLoop=1;jettySize=auto;html=1;exitX=1;exitY=0.5;exitDx=0;exitDy=0;entryX=0;entryY=0.75;entryDx=0;entryDy=0;" parent="1" source="CEb5WgZ9aHTCP-mgNfgS-176" target="CEb5WgZ9aHTCP-mgNfgS-173" edge="1">
          <mxGeometry relative="1" as="geometry" />
        </mxCell>
        <mxCell id="CEb5WgZ9aHTCP-mgNfgS-176" value="Referred To" style="ellipse;whiteSpace=wrap;html=1;" parent="1" vertex="1">
          <mxGeometry x="-350" y="-22" width="70" height="30" as="geometry" />
        </mxCell>
        <mxCell id="CEb5WgZ9aHTCP-mgNfgS-194" style="edgeStyle=orthogonalEdgeStyle;rounded=0;orthogonalLoop=1;jettySize=auto;html=1;exitX=1;exitY=0.5;exitDx=0;exitDy=0;entryX=0;entryY=0;entryDx=0;entryDy=0;" parent="1" source="CEb5WgZ9aHTCP-mgNfgS-177" target="CEb5WgZ9aHTCP-mgNfgS-173" edge="1">
          <mxGeometry relative="1" as="geometry" />
        </mxCell>
        <mxCell id="CEb5WgZ9aHTCP-mgNfgS-177" value="Referral Date" style="ellipse;whiteSpace=wrap;html=1;" parent="1" vertex="1">
          <mxGeometry x="-350" y="-65" width="70" height="30" as="geometry" />
        </mxCell>
        <mxCell id="CEb5WgZ9aHTCP-mgNfgS-178" value="Outcome ID" style="ellipse;whiteSpace=wrap;html=1;" parent="1" vertex="1">
          <mxGeometry x="-310" y="15" width="70" height="30" as="geometry" />
        </mxCell>
        <mxCell id="CEb5WgZ9aHTCP-mgNfgS-179" value="Referred By" style="ellipse;whiteSpace=wrap;html=1;" parent="1" vertex="1">
          <mxGeometry x="-230" y="30" width="70" height="30" as="geometry" />
        </mxCell>
        <mxCell id="CEb5WgZ9aHTCP-mgNfgS-180" value="Update Date" style="ellipse;whiteSpace=wrap;html=1;" parent="1" vertex="1">
          <mxGeometry x="-155" y="15" width="70" height="30" as="geometry" />
        </mxCell>
        <mxCell id="CEb5WgZ9aHTCP-mgNfgS-189" style="edgeStyle=orthogonalEdgeStyle;rounded=0;orthogonalLoop=1;jettySize=auto;html=1;exitX=0;exitY=1;exitDx=0;exitDy=0;entryX=0.75;entryY=0;entryDx=0;entryDy=0;" parent="1" source="CEb5WgZ9aHTCP-mgNfgS-181" target="CEb5WgZ9aHTCP-mgNfgS-173" edge="1">
          <mxGeometry relative="1" as="geometry" />
        </mxCell>
        <mxCell id="CEb5WgZ9aHTCP-mgNfgS-181" value="&lt;u&gt;Referral ID&lt;/u&gt;" style="ellipse;whiteSpace=wrap;html=1;" parent="1" vertex="1">
          <mxGeometry x="-140" y="-110" width="90" height="40" as="geometry" />
        </mxCell>
        <mxCell id="CEb5WgZ9aHTCP-mgNfgS-182" value="Case ID" style="ellipse;whiteSpace=wrap;html=1;" parent="1" vertex="1">
          <mxGeometry x="-210" y="-140" width="70" height="30" as="geometry" />
        </mxCell>
        <mxCell id="CEb5WgZ9aHTCP-mgNfgS-186" style="edgeStyle=orthogonalEdgeStyle;rounded=0;orthogonalLoop=1;jettySize=auto;html=1;exitX=0;exitY=0.5;exitDx=0;exitDy=0;entryX=1;entryY=0.75;entryDx=0;entryDy=0;" parent="1" source="CEb5WgZ9aHTCP-mgNfgS-183" target="CEb5WgZ9aHTCP-mgNfgS-173" edge="1">
          <mxGeometry relative="1" as="geometry" />
        </mxCell>
        <mxCell id="CEb5WgZ9aHTCP-mgNfgS-183" value="Undergoes" style="rhombus;whiteSpace=wrap;html=1;fillColor=#FFFF33;" parent="1" vertex="1">
          <mxGeometry x="-85" y="-65" width="80" height="80" as="geometry" />
        </mxCell>
        <mxCell id="CEb5WgZ9aHTCP-mgNfgS-188" style="edgeStyle=orthogonalEdgeStyle;rounded=0;orthogonalLoop=1;jettySize=auto;html=1;exitX=0.5;exitY=1;exitDx=0;exitDy=0;entryX=0.564;entryY=-0.025;entryDx=0;entryDy=0;entryPerimeter=0;" parent="1" source="CEb5WgZ9aHTCP-mgNfgS-182" target="CEb5WgZ9aHTCP-mgNfgS-173" edge="1">
          <mxGeometry relative="1" as="geometry" />
        </mxCell>
        <mxCell id="CEb5WgZ9aHTCP-mgNfgS-190" style="edgeStyle=orthogonalEdgeStyle;rounded=0;orthogonalLoop=1;jettySize=auto;html=1;exitX=0.5;exitY=0;exitDx=0;exitDy=0;entryX=0.886;entryY=0.95;entryDx=0;entryDy=0;entryPerimeter=0;" parent="1" source="CEb5WgZ9aHTCP-mgNfgS-180" target="CEb5WgZ9aHTCP-mgNfgS-173" edge="1">
          <mxGeometry relative="1" as="geometry" />
        </mxCell>
        <mxCell id="CEb5WgZ9aHTCP-mgNfgS-191" style="edgeStyle=orthogonalEdgeStyle;rounded=0;orthogonalLoop=1;jettySize=auto;html=1;exitX=0.5;exitY=0;exitDx=0;exitDy=0;entryX=0.443;entryY=0.975;entryDx=0;entryDy=0;entryPerimeter=0;" parent="1" source="CEb5WgZ9aHTCP-mgNfgS-179" target="CEb5WgZ9aHTCP-mgNfgS-173" edge="1">
          <mxGeometry relative="1" as="geometry" />
        </mxCell>
        <mxCell id="CEb5WgZ9aHTCP-mgNfgS-192" style="edgeStyle=orthogonalEdgeStyle;rounded=0;orthogonalLoop=1;jettySize=auto;html=1;exitX=1;exitY=0;exitDx=0;exitDy=0;entryX=0.114;entryY=0.975;entryDx=0;entryDy=0;entryPerimeter=0;" parent="1" source="CEb5WgZ9aHTCP-mgNfgS-178" target="CEb5WgZ9aHTCP-mgNfgS-173" edge="1">
          <mxGeometry relative="1" as="geometry" />
        </mxCell>
        <mxCell id="CEb5WgZ9aHTCP-mgNfgS-195" value="1" style="text;html=1;align=center;verticalAlign=middle;resizable=0;points=[];autosize=1;strokeColor=none;fillColor=none;" parent="1" vertex="1">
          <mxGeometry x="-5" y="-52" width="30" height="30" as="geometry" />
        </mxCell>
        <mxCell id="CEb5WgZ9aHTCP-mgNfgS-196" value="N" style="text;html=1;align=center;verticalAlign=middle;resizable=0;points=[];autosize=1;strokeColor=none;fillColor=none;" parent="1" vertex="1">
          <mxGeometry x="-105" y="-52" width="30" height="30" as="geometry" />
        </mxCell>
        <mxCell id="BTyps2MNp-c__5Y06lRA-1270" style="edgeStyle=orthogonalEdgeStyle;rounded=0;orthogonalLoop=1;jettySize=auto;html=1;exitX=0.25;exitY=0;exitDx=0;exitDy=0;entryX=0.5;entryY=1;entryDx=0;entryDy=0;" edge="1" parent="1" source="BTyps2MNp-c__5Y06lRA-1" target="BTyps2MNp-c__5Y06lRA-1267">
          <mxGeometry relative="1" as="geometry" />
        </mxCell>
        <mxCell id="BTyps2MNp-c__5Y06lRA-1" value="Laboratory Tests" style="whiteSpace=wrap;html=1;fillColor=#66FFFF;" vertex="1" parent="1">
          <mxGeometry x="42.5" y="-255" width="110" height="50" as="geometry" />
        </mxCell>
        <mxCell id="BTyps2MNp-c__5Y06lRA-23" style="edgeStyle=orthogonalEdgeStyle;rounded=0;orthogonalLoop=1;jettySize=auto;html=1;exitX=0;exitY=0;exitDx=0;exitDy=0;entryX=1;entryY=0.75;entryDx=0;entryDy=0;" edge="1" parent="1" source="BTyps2MNp-c__5Y06lRA-2" target="BTyps2MNp-c__5Y06lRA-1">
          <mxGeometry relative="1" as="geometry" />
        </mxCell>
        <mxCell id="BTyps2MNp-c__5Y06lRA-2" value="Test Result" style="ellipse;whiteSpace=wrap;html=1;" vertex="1" parent="1">
          <mxGeometry x="189.32999999999998" y="-230" width="70" height="30" as="geometry" />
        </mxCell>
        <mxCell id="BTyps2MNp-c__5Y06lRA-44" style="edgeStyle=orthogonalEdgeStyle;rounded=0;orthogonalLoop=1;jettySize=auto;html=1;exitX=1;exitY=1;exitDx=0;exitDy=0;entryX=0;entryY=0.25;entryDx=0;entryDy=0;" edge="1" parent="1" source="BTyps2MNp-c__5Y06lRA-3" target="BTyps2MNp-c__5Y06lRA-1">
          <mxGeometry relative="1" as="geometry" />
        </mxCell>
        <mxCell id="BTyps2MNp-c__5Y06lRA-3" value="Technician ID" style="ellipse;whiteSpace=wrap;html=1;" vertex="1" parent="1">
          <mxGeometry x="-75" y="-275" width="80" height="30" as="geometry" />
        </mxCell>
        <mxCell id="BTyps2MNp-c__5Y06lRA-22" style="edgeStyle=orthogonalEdgeStyle;rounded=0;orthogonalLoop=1;jettySize=auto;html=1;exitX=0;exitY=0.5;exitDx=0;exitDy=0;entryX=1;entryY=0;entryDx=0;entryDy=0;" edge="1" parent="1" source="BTyps2MNp-c__5Y06lRA-4" target="BTyps2MNp-c__5Y06lRA-1">
          <mxGeometry relative="1" as="geometry" />
        </mxCell>
        <mxCell id="BTyps2MNp-c__5Y06lRA-4" value="Test Type" style="ellipse;whiteSpace=wrap;html=1;" vertex="1" parent="1">
          <mxGeometry x="172.5" y="-270" width="70" height="30" as="geometry" />
        </mxCell>
        <mxCell id="BTyps2MNp-c__5Y06lRA-19" style="edgeStyle=orthogonalEdgeStyle;rounded=0;orthogonalLoop=1;jettySize=auto;html=1;exitX=0;exitY=1;exitDx=0;exitDy=0;entryX=0.75;entryY=0;entryDx=0;entryDy=0;" edge="1" parent="1" source="BTyps2MNp-c__5Y06lRA-5" target="BTyps2MNp-c__5Y06lRA-1">
          <mxGeometry relative="1" as="geometry" />
        </mxCell>
        <mxCell id="BTyps2MNp-c__5Y06lRA-5" value="Case ID" style="ellipse;whiteSpace=wrap;html=1;" vertex="1" parent="1">
          <mxGeometry x="140" y="-310" width="70" height="30" as="geometry" />
        </mxCell>
        <mxCell id="BTyps2MNp-c__5Y06lRA-6" value="Test Date" style="ellipse;whiteSpace=wrap;html=1;" vertex="1" parent="1">
          <mxGeometry x="-62.5" y="-310" width="70" height="30" as="geometry" />
        </mxCell>
        <mxCell id="BTyps2MNp-c__5Y06lRA-7" value="&lt;u&gt;Test ID&lt;/u&gt;" style="ellipse;whiteSpace=wrap;html=1;" vertex="1" parent="1">
          <mxGeometry x="100" y="-340" width="70" height="30" as="geometry" />
        </mxCell>
        <mxCell id="BTyps2MNp-c__5Y06lRA-11" style="edgeStyle=orthogonalEdgeStyle;rounded=0;orthogonalLoop=1;jettySize=auto;html=1;exitX=0.5;exitY=0;exitDx=0;exitDy=0;entryX=0.25;entryY=1;entryDx=0;entryDy=0;" edge="1" parent="1" source="BTyps2MNp-c__5Y06lRA-8" target="BTyps2MNp-c__5Y06lRA-1">
          <mxGeometry relative="1" as="geometry" />
        </mxCell>
        <mxCell id="BTyps2MNp-c__5Y06lRA-8" value="Ubdergoes" style="rhombus;whiteSpace=wrap;html=1;fillColor=#FFFF33;" vertex="1" parent="1">
          <mxGeometry x="30" y="-160" width="80" height="80" as="geometry" />
        </mxCell>
        <mxCell id="BTyps2MNp-c__5Y06lRA-13" value="1" style="text;html=1;align=center;verticalAlign=middle;resizable=0;points=[];autosize=1;strokeColor=none;fillColor=none;" vertex="1" parent="1">
          <mxGeometry x="45" y="-82" width="30" height="30" as="geometry" />
        </mxCell>
        <mxCell id="BTyps2MNp-c__5Y06lRA-14" value="N" style="text;html=1;align=center;verticalAlign=middle;resizable=0;points=[];autosize=1;strokeColor=none;fillColor=none;" vertex="1" parent="1">
          <mxGeometry x="45" y="-185" width="30" height="30" as="geometry" />
        </mxCell>
        <mxCell id="BTyps2MNp-c__5Y06lRA-15" style="edgeStyle=orthogonalEdgeStyle;rounded=0;orthogonalLoop=1;jettySize=auto;html=1;exitX=1;exitY=1;exitDx=0;exitDy=0;entryX=0.123;entryY=0.04;entryDx=0;entryDy=0;entryPerimeter=0;" edge="1" parent="1" source="BTyps2MNp-c__5Y06lRA-6" target="BTyps2MNp-c__5Y06lRA-1">
          <mxGeometry relative="1" as="geometry" />
        </mxCell>
        <mxCell id="BTyps2MNp-c__5Y06lRA-40" style="edgeStyle=orthogonalEdgeStyle;rounded=0;orthogonalLoop=1;jettySize=auto;html=1;exitX=0.75;exitY=0;exitDx=0;exitDy=0;entryX=0;entryY=0.75;entryDx=0;entryDy=0;dashed=1;" edge="1" parent="1" source="BTyps2MNp-c__5Y06lRA-38" target="BTyps2MNp-c__5Y06lRA-1">
          <mxGeometry relative="1" as="geometry" />
        </mxCell>
        <mxCell id="BTyps2MNp-c__5Y06lRA-38" value="Laboratory Tests view" style="rounded=0;whiteSpace=wrap;html=1;dashed=1;fillColor=#00FF80;" vertex="1" parent="1">
          <mxGeometry x="-135" y="-190" width="135" height="20" as="geometry" />
        </mxCell>
        <mxCell id="BTyps2MNp-c__5Y06lRA-41" style="edgeStyle=orthogonalEdgeStyle;rounded=0;orthogonalLoop=1;jettySize=auto;html=1;exitX=0.5;exitY=1;exitDx=0;exitDy=0;" edge="1" parent="1" source="BTyps2MNp-c__5Y06lRA-3" target="BTyps2MNp-c__5Y06lRA-3">
          <mxGeometry relative="1" as="geometry" />
        </mxCell>
        <mxCell id="BTyps2MNp-c__5Y06lRA-49" style="edgeStyle=orthogonalEdgeStyle;rounded=0;orthogonalLoop=1;jettySize=auto;html=1;exitX=0.25;exitY=1;exitDx=0;exitDy=0;entryX=0;entryY=0.75;entryDx=0;entryDy=0;dashed=1;" edge="1" parent="1" source="BTyps2MNp-c__5Y06lRA-48" target="R4TSVdhuAFYHziErIx7F-1">
          <mxGeometry relative="1" as="geometry" />
        </mxCell>
        <mxCell id="BTyps2MNp-c__5Y06lRA-48" value="Patient view" style="whiteSpace=wrap;html=1;rotation=-45;fillColor=#00FF80;dashed=1;" vertex="1" parent="1">
          <mxGeometry x="-165" y="87.5" width="120" height="20" as="geometry" />
        </mxCell>
        <mxCell id="BTyps2MNp-c__5Y06lRA-51" style="edgeStyle=orthogonalEdgeStyle;rounded=0;orthogonalLoop=1;jettySize=auto;html=1;exitX=0;exitY=1;exitDx=0;exitDy=0;entryX=0.85;entryY=-0.05;entryDx=0;entryDy=0;entryPerimeter=0;" edge="1" parent="1" source="R4TSVdhuAFYHziErIx7F-22" target="R4TSVdhuAFYHziErIx7F-1">
          <mxGeometry relative="1" as="geometry" />
        </mxCell>
        <mxCell id="BTyps2MNp-c__5Y06lRA-90" style="edgeStyle=orthogonalEdgeStyle;rounded=0;orthogonalLoop=1;jettySize=auto;html=1;exitX=0.75;exitY=0;exitDx=0;exitDy=0;entryX=0.5;entryY=1;entryDx=0;entryDy=0;" edge="1" parent="1" source="BTyps2MNp-c__5Y06lRA-52" target="BTyps2MNp-c__5Y06lRA-89">
          <mxGeometry relative="1" as="geometry" />
        </mxCell>
        <mxCell id="BTyps2MNp-c__5Y06lRA-52" value="Malaria Cases" style="whiteSpace=wrap;html=1;fillColor=#66FFFF;" vertex="1" parent="1">
          <mxGeometry x="230" y="-142.5" width="120" height="35" as="geometry" />
        </mxCell>
        <mxCell id="BTyps2MNp-c__5Y06lRA-54" style="edgeStyle=orthogonalEdgeStyle;rounded=0;orthogonalLoop=1;jettySize=auto;html=1;exitX=0;exitY=1;exitDx=0;exitDy=0;entryX=0.819;entryY=0.025;entryDx=0;entryDy=0;entryPerimeter=0;" edge="1" parent="1" source="R4TSVdhuAFYHziErIx7F-62" target="R4TSVdhuAFYHziErIx7F-3">
          <mxGeometry relative="1" as="geometry" />
        </mxCell>
        <mxCell id="BTyps2MNp-c__5Y06lRA-61" style="edgeStyle=orthogonalEdgeStyle;rounded=0;orthogonalLoop=1;jettySize=auto;html=1;exitX=1;exitY=0;exitDx=0;exitDy=0;entryX=0;entryY=1;entryDx=0;entryDy=0;" edge="1" parent="1" source="BTyps2MNp-c__5Y06lRA-57" target="R4TSVdhuAFYHziErIx7F-18">
          <mxGeometry relative="1" as="geometry" />
        </mxCell>
        <mxCell id="BTyps2MNp-c__5Y06lRA-57" value="Outcome" style="ellipse;whiteSpace=wrap;html=1;" vertex="1" parent="1">
          <mxGeometry x="-380" y="230" width="70" height="30" as="geometry" />
        </mxCell>
        <mxCell id="BTyps2MNp-c__5Y06lRA-60" style="edgeStyle=orthogonalEdgeStyle;rounded=0;orthogonalLoop=1;jettySize=auto;html=1;exitX=1;exitY=1;exitDx=0;exitDy=0;entryX=0.25;entryY=0;entryDx=0;entryDy=0;" edge="1" parent="1" source="BTyps2MNp-c__5Y06lRA-58" target="CEb5WgZ9aHTCP-mgNfgS-173">
          <mxGeometry relative="1" as="geometry" />
        </mxCell>
        <mxCell id="BTyps2MNp-c__5Y06lRA-58" value="Reason" style="ellipse;whiteSpace=wrap;html=1;" vertex="1" parent="1">
          <mxGeometry x="-280" y="-145" width="70" height="30" as="geometry" />
        </mxCell>
        <mxCell id="BTyps2MNp-c__5Y06lRA-59" style="edgeStyle=orthogonalEdgeStyle;rounded=0;orthogonalLoop=1;jettySize=auto;html=1;exitX=1;exitY=1;exitDx=0;exitDy=0;entryX=0.129;entryY=-0.05;entryDx=0;entryDy=0;entryPerimeter=0;" edge="1" parent="1" source="CEb5WgZ9aHTCP-mgNfgS-175" target="CEb5WgZ9aHTCP-mgNfgS-173">
          <mxGeometry relative="1" as="geometry" />
        </mxCell>
        <mxCell id="BTyps2MNp-c__5Y06lRA-65" style="edgeStyle=orthogonalEdgeStyle;rounded=0;orthogonalLoop=1;jettySize=auto;html=1;exitX=0.5;exitY=0;exitDx=0;exitDy=0;entryX=0.5;entryY=1;entryDx=0;entryDy=0;" edge="1" parent="1" source="BTyps2MNp-c__5Y06lRA-63" target="BTyps2MNp-c__5Y06lRA-52">
          <mxGeometry relative="1" as="geometry" />
        </mxCell>
        <mxCell id="BTyps2MNp-c__5Y06lRA-63" value="Can have" style="rhombus;whiteSpace=wrap;html=1;fillColor=#FFFF33;" vertex="1" parent="1">
          <mxGeometry x="250" y="-80" width="80" height="80" as="geometry" />
        </mxCell>
        <mxCell id="BTyps2MNp-c__5Y06lRA-70" value="1" style="text;html=1;align=center;verticalAlign=middle;resizable=0;points=[];autosize=1;strokeColor=none;fillColor=none;" vertex="1" parent="1">
          <mxGeometry x="255" y="-5" width="30" height="30" as="geometry" />
        </mxCell>
        <mxCell id="BTyps2MNp-c__5Y06lRA-71" value="N" style="text;html=1;align=center;verticalAlign=middle;resizable=0;points=[];autosize=1;strokeColor=none;fillColor=none;" vertex="1" parent="1">
          <mxGeometry x="259.33" y="-102.5" width="30" height="30" as="geometry" />
        </mxCell>
        <mxCell id="BTyps2MNp-c__5Y06lRA-72" value="Patient ID" style="ellipse;whiteSpace=wrap;html=1;" vertex="1" parent="1">
          <mxGeometry x="172.5" y="-90" width="70" height="30" as="geometry" />
        </mxCell>
        <mxCell id="BTyps2MNp-c__5Y06lRA-126" style="edgeStyle=orthogonalEdgeStyle;rounded=0;orthogonalLoop=1;jettySize=auto;html=1;exitX=1;exitY=0;exitDx=0;exitDy=0;entryX=0;entryY=0.25;entryDx=0;entryDy=0;" edge="1" parent="1" source="BTyps2MNp-c__5Y06lRA-73" target="BTyps2MNp-c__5Y06lRA-52">
          <mxGeometry relative="1" as="geometry" />
        </mxCell>
        <mxCell id="BTyps2MNp-c__5Y06lRA-73" value="Outcome ID" style="ellipse;whiteSpace=wrap;html=1;" vertex="1" parent="1">
          <mxGeometry x="140" y="-137.5" width="67.5" height="30" as="geometry" />
        </mxCell>
        <mxCell id="BTyps2MNp-c__5Y06lRA-125" style="edgeStyle=orthogonalEdgeStyle;rounded=0;orthogonalLoop=1;jettySize=auto;html=1;exitX=1;exitY=1;exitDx=0;exitDy=0;entryX=0.25;entryY=0;entryDx=0;entryDy=0;" edge="1" parent="1" source="BTyps2MNp-c__5Y06lRA-74" target="BTyps2MNp-c__5Y06lRA-52">
          <mxGeometry relative="1" as="geometry" />
        </mxCell>
        <mxCell id="BTyps2MNp-c__5Y06lRA-74" value="&lt;u&gt;Case ID&lt;/u&gt;" style="ellipse;whiteSpace=wrap;html=1;" vertex="1" parent="1">
          <mxGeometry x="180" y="-180" width="70" height="25" as="geometry" />
        </mxCell>
        <mxCell id="BTyps2MNp-c__5Y06lRA-75" value="Facility ID" style="ellipse;whiteSpace=wrap;html=1;" vertex="1" parent="1">
          <mxGeometry x="350" y="-190" width="70" height="30" as="geometry" />
        </mxCell>
        <mxCell id="BTyps2MNp-c__5Y06lRA-100" style="edgeStyle=orthogonalEdgeStyle;rounded=0;orthogonalLoop=1;jettySize=auto;html=1;exitX=0;exitY=1;exitDx=0;exitDy=0;entryX=1;entryY=0.75;entryDx=0;entryDy=0;" edge="1" parent="1" source="BTyps2MNp-c__5Y06lRA-76" target="BTyps2MNp-c__5Y06lRA-52">
          <mxGeometry relative="1" as="geometry" />
        </mxCell>
        <mxCell id="BTyps2MNp-c__5Y06lRA-76" value="Date of Diagnosis" style="ellipse;whiteSpace=wrap;html=1;" vertex="1" parent="1">
          <mxGeometry x="395" y="-155" width="70" height="30" as="geometry" />
        </mxCell>
        <mxCell id="BTyps2MNp-c__5Y06lRA-77" value="Type of malaria" style="ellipse;whiteSpace=wrap;html=1;" vertex="1" parent="1">
          <mxGeometry x="380" y="-115" width="80" height="30" as="geometry" />
        </mxCell>
        <mxCell id="BTyps2MNp-c__5Y06lRA-98" style="edgeStyle=orthogonalEdgeStyle;rounded=0;orthogonalLoop=1;jettySize=auto;html=1;exitX=0;exitY=0;exitDx=0;exitDy=0;entryX=0.75;entryY=1;entryDx=0;entryDy=0;" edge="1" parent="1" source="BTyps2MNp-c__5Y06lRA-78" target="BTyps2MNp-c__5Y06lRA-52">
          <mxGeometry relative="1" as="geometry" />
        </mxCell>
        <mxCell id="BTyps2MNp-c__5Y06lRA-78" value="Treatment ID" style="ellipse;whiteSpace=wrap;html=1;" vertex="1" parent="1">
          <mxGeometry x="325" y="-85" width="70" height="30" as="geometry" />
        </mxCell>
        <mxCell id="BTyps2MNp-c__5Y06lRA-82" value="Malaria Type" style="whiteSpace=wrap;html=1;fillColor=#66FFFF;" vertex="1" parent="1">
          <mxGeometry x="257.5" y="-360" width="120" height="30" as="geometry" />
        </mxCell>
        <mxCell id="BTyps2MNp-c__5Y06lRA-102" style="edgeStyle=orthogonalEdgeStyle;rounded=0;orthogonalLoop=1;jettySize=auto;html=1;exitX=0.5;exitY=1;exitDx=0;exitDy=0;entryX=0.25;entryY=0;entryDx=0;entryDy=0;" edge="1" parent="1" source="BTyps2MNp-c__5Y06lRA-83" target="BTyps2MNp-c__5Y06lRA-82">
          <mxGeometry relative="1" as="geometry" />
        </mxCell>
        <mxCell id="BTyps2MNp-c__5Y06lRA-83" value="Type Name" style="ellipse;whiteSpace=wrap;html=1;" vertex="1" parent="1">
          <mxGeometry x="250" y="-440" width="70" height="30" as="geometry" />
        </mxCell>
        <mxCell id="BTyps2MNp-c__5Y06lRA-84" value="&lt;u&gt;Type ID&lt;/u&gt;" style="ellipse;whiteSpace=wrap;html=1;" vertex="1" parent="1">
          <mxGeometry x="322.5" y="-450" width="70" height="30" as="geometry" />
        </mxCell>
        <mxCell id="BTyps2MNp-c__5Y06lRA-85" value="Description" style="ellipse;whiteSpace=wrap;html=1;" vertex="1" parent="1">
          <mxGeometry x="400" y="-430" width="70" height="30" as="geometry" />
        </mxCell>
        <mxCell id="BTyps2MNp-c__5Y06lRA-105" style="edgeStyle=orthogonalEdgeStyle;rounded=0;orthogonalLoop=1;jettySize=auto;html=1;exitX=0;exitY=1;exitDx=0;exitDy=0;entryX=1;entryY=0.25;entryDx=0;entryDy=0;" edge="1" parent="1" source="BTyps2MNp-c__5Y06lRA-86" target="BTyps2MNp-c__5Y06lRA-82">
          <mxGeometry relative="1" as="geometry" />
        </mxCell>
        <mxCell id="BTyps2MNp-c__5Y06lRA-86" value="Date Added" style="ellipse;whiteSpace=wrap;html=1;" vertex="1" parent="1">
          <mxGeometry x="420" y="-390" width="70" height="30" as="geometry" />
        </mxCell>
        <mxCell id="BTyps2MNp-c__5Y06lRA-87" value="Added By" style="ellipse;whiteSpace=wrap;html=1;" vertex="1" parent="1">
          <mxGeometry x="392.5" y="-330" width="70" height="30" as="geometry" />
        </mxCell>
        <mxCell id="BTyps2MNp-c__5Y06lRA-101" style="edgeStyle=orthogonalEdgeStyle;rounded=0;orthogonalLoop=1;jettySize=auto;html=1;exitX=1;exitY=1;exitDx=0;exitDy=0;entryX=0;entryY=0;entryDx=0;entryDy=0;" edge="1" parent="1" source="BTyps2MNp-c__5Y06lRA-88" target="BTyps2MNp-c__5Y06lRA-82">
          <mxGeometry relative="1" as="geometry" />
        </mxCell>
        <mxCell id="BTyps2MNp-c__5Y06lRA-88" value="Update Date" style="ellipse;whiteSpace=wrap;html=1;" vertex="1" parent="1">
          <mxGeometry x="185" y="-410" width="70" height="30" as="geometry" />
        </mxCell>
        <mxCell id="BTyps2MNp-c__5Y06lRA-91" style="edgeStyle=orthogonalEdgeStyle;rounded=0;orthogonalLoop=1;jettySize=auto;html=1;exitX=0.5;exitY=0;exitDx=0;exitDy=0;" edge="1" parent="1" source="BTyps2MNp-c__5Y06lRA-89" target="BTyps2MNp-c__5Y06lRA-82">
          <mxGeometry relative="1" as="geometry" />
        </mxCell>
        <mxCell id="BTyps2MNp-c__5Y06lRA-89" value="Can belong&amp;nbsp;&lt;div&gt;To&lt;/div&gt;" style="rhombus;whiteSpace=wrap;html=1;fillColor=#FFFF33;" vertex="1" parent="1">
          <mxGeometry x="277.5" y="-295" width="80" height="80" as="geometry" />
        </mxCell>
        <mxCell id="BTyps2MNp-c__5Y06lRA-92" value="N" style="text;html=1;align=center;verticalAlign=middle;resizable=0;points=[];autosize=1;strokeColor=none;fillColor=none;" vertex="1" parent="1">
          <mxGeometry x="295" y="-222" width="30" height="30" as="geometry" />
        </mxCell>
        <mxCell id="BTyps2MNp-c__5Y06lRA-93" value="1" style="text;html=1;align=center;verticalAlign=middle;resizable=0;points=[];autosize=1;strokeColor=none;fillColor=none;" vertex="1" parent="1">
          <mxGeometry x="295" y="-322" width="30" height="30" as="geometry" />
        </mxCell>
        <mxCell id="BTyps2MNp-c__5Y06lRA-99" style="edgeStyle=orthogonalEdgeStyle;rounded=0;orthogonalLoop=1;jettySize=auto;html=1;exitX=0;exitY=0.5;exitDx=0;exitDy=0;entryX=0.925;entryY=1.014;entryDx=0;entryDy=0;entryPerimeter=0;" edge="1" parent="1" source="BTyps2MNp-c__5Y06lRA-77" target="BTyps2MNp-c__5Y06lRA-52">
          <mxGeometry relative="1" as="geometry" />
        </mxCell>
        <mxCell id="BTyps2MNp-c__5Y06lRA-103" style="edgeStyle=orthogonalEdgeStyle;rounded=0;orthogonalLoop=1;jettySize=auto;html=1;exitX=0;exitY=1;exitDx=0;exitDy=0;entryX=0.688;entryY=0.1;entryDx=0;entryDy=0;entryPerimeter=0;" edge="1" parent="1" source="BTyps2MNp-c__5Y06lRA-84" target="BTyps2MNp-c__5Y06lRA-82">
          <mxGeometry relative="1" as="geometry" />
        </mxCell>
        <mxCell id="BTyps2MNp-c__5Y06lRA-104" style="edgeStyle=orthogonalEdgeStyle;rounded=0;orthogonalLoop=1;jettySize=auto;html=1;exitX=0;exitY=1;exitDx=0;exitDy=0;entryX=0.954;entryY=-0.067;entryDx=0;entryDy=0;entryPerimeter=0;" edge="1" parent="1" source="BTyps2MNp-c__5Y06lRA-85" target="BTyps2MNp-c__5Y06lRA-82">
          <mxGeometry relative="1" as="geometry" />
        </mxCell>
        <mxCell id="BTyps2MNp-c__5Y06lRA-106" style="edgeStyle=orthogonalEdgeStyle;rounded=0;orthogonalLoop=1;jettySize=auto;html=1;exitX=0;exitY=0.5;exitDx=0;exitDy=0;entryX=0.821;entryY=1.067;entryDx=0;entryDy=0;entryPerimeter=0;" edge="1" parent="1" source="BTyps2MNp-c__5Y06lRA-87" target="BTyps2MNp-c__5Y06lRA-82">
          <mxGeometry relative="1" as="geometry" />
        </mxCell>
        <mxCell id="BTyps2MNp-c__5Y06lRA-133" style="edgeStyle=orthogonalEdgeStyle;rounded=0;orthogonalLoop=1;jettySize=auto;html=1;exitX=0;exitY=0;exitDx=0;exitDy=0;entryX=0.75;entryY=0;entryDx=0;entryDy=0;" edge="1" parent="1" source="BTyps2MNp-c__5Y06lRA-109" target="R4TSVdhuAFYHziErIx7F-5">
          <mxGeometry relative="1" as="geometry" />
        </mxCell>
        <mxCell id="BTyps2MNp-c__5Y06lRA-109" value="&lt;u&gt;Training ID&lt;/u&gt;" style="ellipse;whiteSpace=wrap;html=1;" vertex="1" parent="1">
          <mxGeometry x="420" y="300" width="67.5" height="40" as="geometry" />
        </mxCell>
        <mxCell id="BTyps2MNp-c__5Y06lRA-119" style="edgeStyle=orthogonalEdgeStyle;rounded=0;orthogonalLoop=1;jettySize=auto;html=1;exitX=0;exitY=0;exitDx=0;exitDy=0;entryX=1;entryY=1;entryDx=0;entryDy=0;" edge="1" parent="1" source="BTyps2MNp-c__5Y06lRA-110" target="R4TSVdhuAFYHziErIx7F-5">
          <mxGeometry relative="1" as="geometry" />
        </mxCell>
        <mxCell id="BTyps2MNp-c__5Y06lRA-110" value="User ID" style="ellipse;whiteSpace=wrap;html=1;" vertex="1" parent="1">
          <mxGeometry x="466.25" y="390" width="67.5" height="40" as="geometry" />
        </mxCell>
        <mxCell id="BTyps2MNp-c__5Y06lRA-111" value="Training&amp;nbsp;&lt;div&gt;Type&lt;/div&gt;" style="ellipse;whiteSpace=wrap;html=1;" vertex="1" parent="1">
          <mxGeometry x="391" y="440" width="67.5" height="40" as="geometry" />
        </mxCell>
        <mxCell id="BTyps2MNp-c__5Y06lRA-112" value="Training&lt;div&gt;Date&lt;/div&gt;" style="ellipse;whiteSpace=wrap;html=1;" vertex="1" parent="1">
          <mxGeometry x="310" y="440" width="67.5" height="40" as="geometry" />
        </mxCell>
        <mxCell id="BTyps2MNp-c__5Y06lRA-122" style="edgeStyle=orthogonalEdgeStyle;rounded=0;orthogonalLoop=1;jettySize=auto;html=1;exitX=1;exitY=0;exitDx=0;exitDy=0;entryX=0;entryY=0.75;entryDx=0;entryDy=0;" edge="1" parent="1" source="BTyps2MNp-c__5Y06lRA-113" target="R4TSVdhuAFYHziErIx7F-5">
          <mxGeometry relative="1" as="geometry" />
        </mxCell>
        <mxCell id="BTyps2MNp-c__5Y06lRA-113" value="Completion&amp;nbsp;&lt;div&gt;Status&lt;/div&gt;" style="ellipse;whiteSpace=wrap;html=1;" vertex="1" parent="1">
          <mxGeometry x="265" y="381.83" width="67.5" height="40" as="geometry" />
        </mxCell>
        <mxCell id="BTyps2MNp-c__5Y06lRA-115" value="Can&amp;nbsp;&lt;div&gt;Hame&lt;/div&gt;" style="rhombus;whiteSpace=wrap;html=1;fillColor=#FFFF33;" vertex="1" parent="1">
          <mxGeometry x="357.5" y="246.83" width="82.5" height="73.17" as="geometry" />
        </mxCell>
        <mxCell id="BTyps2MNp-c__5Y06lRA-117" style="edgeStyle=orthogonalEdgeStyle;rounded=0;orthogonalLoop=1;jettySize=auto;html=1;exitX=0.5;exitY=1;exitDx=0;exitDy=0;entryX=0.363;entryY=0;entryDx=0;entryDy=0;entryPerimeter=0;" edge="1" parent="1" source="BTyps2MNp-c__5Y06lRA-115" target="R4TSVdhuAFYHziErIx7F-5">
          <mxGeometry relative="1" as="geometry" />
        </mxCell>
        <mxCell id="BTyps2MNp-c__5Y06lRA-120" style="edgeStyle=orthogonalEdgeStyle;rounded=0;orthogonalLoop=1;jettySize=auto;html=1;exitX=0.5;exitY=0;exitDx=0;exitDy=0;entryX=0.65;entryY=0.95;entryDx=0;entryDy=0;entryPerimeter=0;" edge="1" parent="1" source="BTyps2MNp-c__5Y06lRA-111" target="R4TSVdhuAFYHziErIx7F-5">
          <mxGeometry relative="1" as="geometry" />
        </mxCell>
        <mxCell id="BTyps2MNp-c__5Y06lRA-121" style="edgeStyle=orthogonalEdgeStyle;rounded=0;orthogonalLoop=1;jettySize=auto;html=1;exitX=1;exitY=0;exitDx=0;exitDy=0;entryX=0.125;entryY=0.925;entryDx=0;entryDy=0;entryPerimeter=0;" edge="1" parent="1" source="BTyps2MNp-c__5Y06lRA-112" target="R4TSVdhuAFYHziErIx7F-5">
          <mxGeometry relative="1" as="geometry" />
        </mxCell>
        <mxCell id="BTyps2MNp-c__5Y06lRA-123" value="1" style="text;html=1;align=center;verticalAlign=middle;resizable=0;points=[];autosize=1;strokeColor=none;fillColor=none;" vertex="1" parent="1">
          <mxGeometry x="370" y="223" width="30" height="30" as="geometry" />
        </mxCell>
        <mxCell id="BTyps2MNp-c__5Y06lRA-124" value="N" style="text;html=1;align=center;verticalAlign=middle;resizable=0;points=[];autosize=1;strokeColor=none;fillColor=none;" vertex="1" parent="1">
          <mxGeometry x="375" y="318" width="30" height="30" as="geometry" />
        </mxCell>
        <mxCell id="BTyps2MNp-c__5Y06lRA-127" style="edgeStyle=orthogonalEdgeStyle;rounded=0;orthogonalLoop=1;jettySize=auto;html=1;exitX=1;exitY=0;exitDx=0;exitDy=0;entryX=0.058;entryY=0.929;entryDx=0;entryDy=0;entryPerimeter=0;" edge="1" parent="1" source="BTyps2MNp-c__5Y06lRA-72" target="BTyps2MNp-c__5Y06lRA-52">
          <mxGeometry relative="1" as="geometry" />
        </mxCell>
        <mxCell id="BTyps2MNp-c__5Y06lRA-128" style="edgeStyle=orthogonalEdgeStyle;rounded=0;orthogonalLoop=1;jettySize=auto;html=1;exitX=0;exitY=1;exitDx=0;exitDy=0;entryX=0.925;entryY=-0.014;entryDx=0;entryDy=0;entryPerimeter=0;" edge="1" parent="1" source="BTyps2MNp-c__5Y06lRA-75" target="BTyps2MNp-c__5Y06lRA-52">
          <mxGeometry relative="1" as="geometry" />
        </mxCell>
        <mxCell id="BTyps2MNp-c__5Y06lRA-130" style="edgeStyle=orthogonalEdgeStyle;rounded=0;orthogonalLoop=1;jettySize=auto;html=1;exitX=0;exitY=0.25;exitDx=0;exitDy=0;entryX=1.167;entryY=0.067;entryDx=0;entryDy=0;entryPerimeter=0;" edge="1" parent="1" source="R4TSVdhuAFYHziErIx7F-3" target="BTyps2MNp-c__5Y06lRA-70">
          <mxGeometry relative="1" as="geometry" />
        </mxCell>
        <mxCell id="BTyps2MNp-c__5Y06lRA-135" style="edgeStyle=orthogonalEdgeStyle;rounded=0;orthogonalLoop=1;jettySize=auto;html=1;exitX=0.5;exitY=1;exitDx=0;exitDy=0;entryX=0.867;entryY=0.9;entryDx=0;entryDy=0;entryPerimeter=0;" edge="1" parent="1" source="R4TSVdhuAFYHziErIx7F-3" target="BTyps2MNp-c__5Y06lRA-123">
          <mxGeometry relative="1" as="geometry">
            <Array as="points">
              <mxPoint x="385" y="140" />
              <mxPoint x="385" y="182" />
              <mxPoint x="396" y="182" />
            </Array>
          </mxGeometry>
        </mxCell>
        <mxCell id="BTyps2MNp-c__5Y06lRA-140" style="edgeStyle=orthogonalEdgeStyle;rounded=0;orthogonalLoop=1;jettySize=auto;html=1;exitX=0.5;exitY=0;exitDx=0;exitDy=0;entryX=1;entryY=0.75;entryDx=0;entryDy=0;" edge="1" parent="1" source="BTyps2MNp-c__5Y06lRA-136" target="R4TSVdhuAFYHziErIx7F-3">
          <mxGeometry relative="1" as="geometry">
            <Array as="points">
              <mxPoint x="600" y="150" />
              <mxPoint x="440" y="150" />
              <mxPoint x="440" y="130" />
            </Array>
          </mxGeometry>
        </mxCell>
        <mxCell id="BTyps2MNp-c__5Y06lRA-136" value="Can have" style="rhombus;whiteSpace=wrap;html=1;fillColor=#FFFF33;" vertex="1" parent="1">
          <mxGeometry x="560" y="180" width="80" height="80" as="geometry" />
        </mxCell>
        <mxCell id="BTyps2MNp-c__5Y06lRA-141" value="N" style="text;html=1;align=center;verticalAlign=middle;resizable=0;points=[];autosize=1;strokeColor=none;fillColor=none;" vertex="1" parent="1">
          <mxGeometry x="595" y="248" width="30" height="30" as="geometry" />
        </mxCell>
        <mxCell id="BTyps2MNp-c__5Y06lRA-142" value="1" style="text;html=1;align=center;verticalAlign=middle;resizable=0;points=[];autosize=1;strokeColor=none;fillColor=none;" vertex="1" parent="1">
          <mxGeometry x="595" y="158" width="30" height="30" as="geometry" />
        </mxCell>
        <mxCell id="BTyps2MNp-c__5Y06lRA-153" style="edgeStyle=orthogonalEdgeStyle;rounded=0;orthogonalLoop=1;jettySize=auto;html=1;exitX=0;exitY=1;exitDx=0;exitDy=0;entryX=0.75;entryY=0;entryDx=0;entryDy=0;" edge="1" parent="1" source="BTyps2MNp-c__5Y06lRA-143" target="R4TSVdhuAFYHziErIx7F-13">
          <mxGeometry relative="1" as="geometry" />
        </mxCell>
        <mxCell id="BTyps2MNp-c__5Y06lRA-143" value="&lt;u&gt;Visit ID&lt;/u&gt;" style="ellipse;whiteSpace=wrap;html=1;" vertex="1" parent="1">
          <mxGeometry x="660" y="230" width="70" height="30" as="geometry" />
        </mxCell>
        <mxCell id="BTyps2MNp-c__5Y06lRA-154" style="edgeStyle=orthogonalEdgeStyle;rounded=0;orthogonalLoop=1;jettySize=auto;html=1;exitX=0;exitY=1;exitDx=0;exitDy=0;entryX=1;entryY=0;entryDx=0;entryDy=0;" edge="1" parent="1" source="BTyps2MNp-c__5Y06lRA-144" target="R4TSVdhuAFYHziErIx7F-13">
          <mxGeometry relative="1" as="geometry" />
        </mxCell>
        <mxCell id="BTyps2MNp-c__5Y06lRA-144" value="Patient ID" style="ellipse;whiteSpace=wrap;html=1;" vertex="1" parent="1">
          <mxGeometry x="695" y="275" width="70" height="30" as="geometry" />
        </mxCell>
        <mxCell id="BTyps2MNp-c__5Y06lRA-155" style="edgeStyle=orthogonalEdgeStyle;rounded=0;orthogonalLoop=1;jettySize=auto;html=1;exitX=0;exitY=0;exitDx=0;exitDy=0;entryX=1;entryY=0.5;entryDx=0;entryDy=0;" edge="1" parent="1" source="BTyps2MNp-c__5Y06lRA-145" target="R4TSVdhuAFYHziErIx7F-13">
          <mxGeometry relative="1" as="geometry" />
        </mxCell>
        <mxCell id="BTyps2MNp-c__5Y06lRA-145" value="Visit Number" style="ellipse;whiteSpace=wrap;html=1;" vertex="1" parent="1">
          <mxGeometry x="700" y="330" width="70" height="30" as="geometry" />
        </mxCell>
        <mxCell id="BTyps2MNp-c__5Y06lRA-159" style="edgeStyle=orthogonalEdgeStyle;rounded=0;orthogonalLoop=1;jettySize=auto;html=1;exitX=1;exitY=1;exitDx=0;exitDy=0;entryX=0;entryY=0.25;entryDx=0;entryDy=0;" edge="1" parent="1" source="BTyps2MNp-c__5Y06lRA-149" target="R4TSVdhuAFYHziErIx7F-13">
          <mxGeometry relative="1" as="geometry" />
        </mxCell>
        <mxCell id="BTyps2MNp-c__5Y06lRA-149" value="Facility ID" style="ellipse;whiteSpace=wrap;html=1;" vertex="1" parent="1">
          <mxGeometry x="505" y="275" width="70" height="30" as="geometry" />
        </mxCell>
        <mxCell id="BTyps2MNp-c__5Y06lRA-150" value="Date Added" style="ellipse;whiteSpace=wrap;html=1;" vertex="1" parent="1">
          <mxGeometry x="560" y="370" width="70" height="30" as="geometry" />
        </mxCell>
        <mxCell id="BTyps2MNp-c__5Y06lRA-151" value="Visit Date&amp;nbsp;" style="ellipse;whiteSpace=wrap;html=1;" vertex="1" parent="1">
          <mxGeometry x="635" y="370" width="70" height="30" as="geometry" />
        </mxCell>
        <mxCell id="BTyps2MNp-c__5Y06lRA-158" style="edgeStyle=orthogonalEdgeStyle;rounded=0;orthogonalLoop=1;jettySize=auto;html=1;exitX=1;exitY=0;exitDx=0;exitDy=0;entryX=0;entryY=0.5;entryDx=0;entryDy=0;" edge="1" parent="1" source="BTyps2MNp-c__5Y06lRA-152" target="R4TSVdhuAFYHziErIx7F-13">
          <mxGeometry relative="1" as="geometry" />
        </mxCell>
        <mxCell id="BTyps2MNp-c__5Y06lRA-152" value="Update Date" style="ellipse;whiteSpace=wrap;html=1;" vertex="1" parent="1">
          <mxGeometry x="495" y="330" width="70" height="30" as="geometry" />
        </mxCell>
        <mxCell id="BTyps2MNp-c__5Y06lRA-156" style="edgeStyle=orthogonalEdgeStyle;rounded=0;orthogonalLoop=1;jettySize=auto;html=1;exitX=0.5;exitY=0;exitDx=0;exitDy=0;entryX=0.889;entryY=1.052;entryDx=0;entryDy=0;entryPerimeter=0;" edge="1" parent="1" source="BTyps2MNp-c__5Y06lRA-151" target="R4TSVdhuAFYHziErIx7F-13">
          <mxGeometry relative="1" as="geometry" />
        </mxCell>
        <mxCell id="BTyps2MNp-c__5Y06lRA-157" style="edgeStyle=orthogonalEdgeStyle;rounded=0;orthogonalLoop=1;jettySize=auto;html=1;exitX=0.5;exitY=0;exitDx=0;exitDy=0;entryX=0.167;entryY=0.974;entryDx=0;entryDy=0;entryPerimeter=0;" edge="1" parent="1" source="BTyps2MNp-c__5Y06lRA-150" target="R4TSVdhuAFYHziErIx7F-13">
          <mxGeometry relative="1" as="geometry" />
        </mxCell>
        <mxCell id="BTyps2MNp-c__5Y06lRA-177" style="edgeStyle=orthogonalEdgeStyle;rounded=0;orthogonalLoop=1;jettySize=auto;html=1;exitX=0.5;exitY=0;exitDx=0;exitDy=0;entryX=0.25;entryY=1;entryDx=0;entryDy=0;" edge="1" parent="1" source="BTyps2MNp-c__5Y06lRA-160" target="R4TSVdhuAFYHziErIx7F-15">
          <mxGeometry relative="1" as="geometry" />
        </mxCell>
        <mxCell id="BTyps2MNp-c__5Y06lRA-160" value="Timestamp" style="ellipse;whiteSpace=wrap;html=1;" vertex="1" parent="1">
          <mxGeometry x="-260" y="470" width="70" height="30" as="geometry" />
        </mxCell>
        <mxCell id="BTyps2MNp-c__5Y06lRA-175" style="edgeStyle=orthogonalEdgeStyle;rounded=0;orthogonalLoop=1;jettySize=auto;html=1;exitX=1;exitY=0.5;exitDx=0;exitDy=0;entryX=0;entryY=0.25;entryDx=0;entryDy=0;" edge="1" parent="1" source="BTyps2MNp-c__5Y06lRA-161" target="R4TSVdhuAFYHziErIx7F-15">
          <mxGeometry relative="1" as="geometry" />
        </mxCell>
        <mxCell id="BTyps2MNp-c__5Y06lRA-161" value="User ID" style="ellipse;whiteSpace=wrap;html=1;" vertex="1" parent="1">
          <mxGeometry x="-360" y="391.83" width="70" height="30" as="geometry" />
        </mxCell>
        <mxCell id="BTyps2MNp-c__5Y06lRA-162" value="&lt;u&gt;Log ID&lt;/u&gt;" style="ellipse;whiteSpace=wrap;html=1;" vertex="1" parent="1">
          <mxGeometry x="-330" y="348" width="70" height="30" as="geometry" />
        </mxCell>
        <mxCell id="BTyps2MNp-c__5Y06lRA-178" style="edgeStyle=orthogonalEdgeStyle;rounded=0;orthogonalLoop=1;jettySize=auto;html=1;exitX=0;exitY=0.5;exitDx=0;exitDy=0;entryX=0.75;entryY=0;entryDx=0;entryDy=0;" edge="1" parent="1" source="BTyps2MNp-c__5Y06lRA-163" target="R4TSVdhuAFYHziErIx7F-15">
          <mxGeometry relative="1" as="geometry" />
        </mxCell>
        <mxCell id="BTyps2MNp-c__5Y06lRA-163" value="Location" style="ellipse;whiteSpace=wrap;html=1;" vertex="1" parent="1">
          <mxGeometry x="-145" y="341.83" width="70" height="30" as="geometry" />
        </mxCell>
        <mxCell id="BTyps2MNp-c__5Y06lRA-179" style="edgeStyle=orthogonalEdgeStyle;rounded=0;orthogonalLoop=1;jettySize=auto;html=1;exitX=0;exitY=0.5;exitDx=0;exitDy=0;entryX=1;entryY=0;entryDx=0;entryDy=0;" edge="1" parent="1" source="BTyps2MNp-c__5Y06lRA-164" target="R4TSVdhuAFYHziErIx7F-15">
          <mxGeometry relative="1" as="geometry" />
        </mxCell>
        <mxCell id="BTyps2MNp-c__5Y06lRA-164" value="IP Address" style="ellipse;whiteSpace=wrap;html=1;" vertex="1" parent="1">
          <mxGeometry x="-125" y="391.83" width="70" height="30" as="geometry" />
        </mxCell>
        <mxCell id="BTyps2MNp-c__5Y06lRA-176" style="edgeStyle=orthogonalEdgeStyle;rounded=0;orthogonalLoop=1;jettySize=auto;html=1;exitX=1;exitY=0;exitDx=0;exitDy=0;entryX=0;entryY=0.75;entryDx=0;entryDy=0;" edge="1" parent="1" source="BTyps2MNp-c__5Y06lRA-165" target="R4TSVdhuAFYHziErIx7F-15">
          <mxGeometry relative="1" as="geometry" />
        </mxCell>
        <mxCell id="BTyps2MNp-c__5Y06lRA-165" value="Activity" style="ellipse;whiteSpace=wrap;html=1;" vertex="1" parent="1">
          <mxGeometry x="-350" y="440" width="70" height="30" as="geometry" />
        </mxCell>
        <mxCell id="BTyps2MNp-c__5Y06lRA-167" value="" style="edgeStyle=orthogonalEdgeStyle;rounded=0;orthogonalLoop=1;jettySize=auto;html=1;" edge="1" parent="1" source="BTyps2MNp-c__5Y06lRA-166" target="R4TSVdhuAFYHziErIx7F-15">
          <mxGeometry relative="1" as="geometry" />
        </mxCell>
        <mxCell id="BTyps2MNp-c__5Y06lRA-166" value="Can Involve" style="rhombus;whiteSpace=wrap;html=1;fillColor=#FFFF33;" vertex="1" parent="1">
          <mxGeometry x="-250" y="290" width="80" height="60" as="geometry" />
        </mxCell>
        <mxCell id="BTyps2MNp-c__5Y06lRA-173" style="edgeStyle=orthogonalEdgeStyle;rounded=0;orthogonalLoop=1;jettySize=auto;html=1;exitX=0.5;exitY=0;exitDx=0;exitDy=0;entryX=1;entryY=1;entryDx=0;entryDy=0;" edge="1" parent="1" source="BTyps2MNp-c__5Y06lRA-169" target="R4TSVdhuAFYHziErIx7F-15">
          <mxGeometry relative="1" as="geometry" />
        </mxCell>
        <mxCell id="BTyps2MNp-c__5Y06lRA-169" value="Involves" style="rhombus;whiteSpace=wrap;html=1;fillColor=#FFFF33;" vertex="1" parent="1">
          <mxGeometry x="-130" y="460" width="80" height="80" as="geometry" />
        </mxCell>
        <mxCell id="BTyps2MNp-c__5Y06lRA-174" style="edgeStyle=orthogonalEdgeStyle;rounded=0;orthogonalLoop=1;jettySize=auto;html=1;exitX=1;exitY=1;exitDx=0;exitDy=0;entryX=0.133;entryY=-0.025;entryDx=0;entryDy=0;entryPerimeter=0;" edge="1" parent="1" source="BTyps2MNp-c__5Y06lRA-162" target="R4TSVdhuAFYHziErIx7F-15">
          <mxGeometry relative="1" as="geometry" />
        </mxCell>
        <mxCell id="BTyps2MNp-c__5Y06lRA-180" value="1" style="text;html=1;align=center;verticalAlign=middle;resizable=0;points=[];autosize=1;strokeColor=none;fillColor=none;" vertex="1" parent="1">
          <mxGeometry x="-215" y="258" width="30" height="30" as="geometry" />
        </mxCell>
        <mxCell id="BTyps2MNp-c__5Y06lRA-181" value="N" style="text;html=1;align=center;verticalAlign=middle;resizable=0;points=[];autosize=1;strokeColor=none;fillColor=none;" vertex="1" parent="1">
          <mxGeometry x="-215" y="338" width="30" height="30" as="geometry" />
        </mxCell>
        <mxCell id="BTyps2MNp-c__5Y06lRA-182" value="1" style="text;html=1;align=center;verticalAlign=middle;resizable=0;points=[];autosize=1;strokeColor=none;fillColor=none;" vertex="1" parent="1">
          <mxGeometry x="-95" y="528" width="30" height="30" as="geometry" />
        </mxCell>
        <mxCell id="BTyps2MNp-c__5Y06lRA-183" value="N" style="text;html=1;align=center;verticalAlign=middle;resizable=0;points=[];autosize=1;strokeColor=none;fillColor=none;" vertex="1" parent="1">
          <mxGeometry x="-95" y="438" width="30" height="30" as="geometry" />
        </mxCell>
        <mxCell id="BTyps2MNp-c__5Y06lRA-184" value="&lt;u&gt;Role ID&lt;/u&gt;" style="ellipse;whiteSpace=wrap;html=1;" vertex="1" parent="1">
          <mxGeometry x="-35" y="535" width="70" height="30" as="geometry" />
        </mxCell>
        <mxCell id="BTyps2MNp-c__5Y06lRA-1290" style="edgeStyle=orthogonalEdgeStyle;rounded=0;orthogonalLoop=1;jettySize=auto;html=1;exitX=0;exitY=0.5;exitDx=0;exitDy=0;entryX=1;entryY=0.5;entryDx=0;entryDy=0;" edge="1" parent="1" source="BTyps2MNp-c__5Y06lRA-185" target="R4TSVdhuAFYHziErIx7F-19">
          <mxGeometry relative="1" as="geometry" />
        </mxCell>
        <mxCell id="BTyps2MNp-c__5Y06lRA-185" value="Role Name" style="ellipse;whiteSpace=wrap;html=1;" vertex="1" parent="1">
          <mxGeometry x="-10" y="585" width="70" height="30" as="geometry" />
        </mxCell>
        <mxCell id="BTyps2MNp-c__5Y06lRA-1293" style="edgeStyle=orthogonalEdgeStyle;rounded=0;orthogonalLoop=1;jettySize=auto;html=1;exitX=1;exitY=0;exitDx=0;exitDy=0;entryX=0;entryY=1;entryDx=0;entryDy=0;" edge="1" parent="1" source="BTyps2MNp-c__5Y06lRA-186" target="R4TSVdhuAFYHziErIx7F-19">
          <mxGeometry relative="1" as="geometry" />
        </mxCell>
        <mxCell id="BTyps2MNp-c__5Y06lRA-186" value="Role Desc" style="ellipse;whiteSpace=wrap;html=1;" vertex="1" parent="1">
          <mxGeometry x="-190" y="630" width="70" height="30" as="geometry" />
        </mxCell>
        <mxCell id="BTyps2MNp-c__5Y06lRA-1292" style="edgeStyle=orthogonalEdgeStyle;rounded=0;orthogonalLoop=1;jettySize=auto;html=1;exitX=1;exitY=0.5;exitDx=0;exitDy=0;entryX=0;entryY=0.25;entryDx=0;entryDy=0;" edge="1" parent="1" source="BTyps2MNp-c__5Y06lRA-187" target="R4TSVdhuAFYHziErIx7F-19">
          <mxGeometry relative="1" as="geometry" />
        </mxCell>
        <mxCell id="BTyps2MNp-c__5Y06lRA-187" value="Date Added" style="ellipse;whiteSpace=wrap;html=1;" vertex="1" parent="1">
          <mxGeometry x="-225" y="580" width="70" height="30" as="geometry" />
        </mxCell>
        <mxCell id="BTyps2MNp-c__5Y06lRA-188" value="Update Date&amp;nbsp;" style="ellipse;whiteSpace=wrap;html=1;" vertex="1" parent="1">
          <mxGeometry x="-210" y="535" width="70" height="30" as="geometry" />
        </mxCell>
        <mxCell id="BTyps2MNp-c__5Y06lRA-195" style="edgeStyle=orthogonalEdgeStyle;rounded=0;orthogonalLoop=1;jettySize=auto;html=1;exitX=0;exitY=0.5;exitDx=0;exitDy=0;entryX=0.889;entryY=0;entryDx=0;entryDy=0;entryPerimeter=0;" edge="1" parent="1" source="BTyps2MNp-c__5Y06lRA-184" target="R4TSVdhuAFYHziErIx7F-19">
          <mxGeometry relative="1" as="geometry" />
        </mxCell>
        <mxCell id="BTyps2MNp-c__5Y06lRA-196" style="edgeStyle=orthogonalEdgeStyle;rounded=0;orthogonalLoop=1;jettySize=auto;html=1;exitX=1;exitY=0.5;exitDx=0;exitDy=0;entryX=0.122;entryY=0.05;entryDx=0;entryDy=0;entryPerimeter=0;" edge="1" parent="1" source="BTyps2MNp-c__5Y06lRA-188" target="R4TSVdhuAFYHziErIx7F-19">
          <mxGeometry relative="1" as="geometry" />
        </mxCell>
        <mxCell id="BTyps2MNp-c__5Y06lRA-201" style="edgeStyle=orthogonalEdgeStyle;rounded=0;orthogonalLoop=1;jettySize=auto;html=1;exitX=0.5;exitY=1;exitDx=0;exitDy=0;entryX=0.058;entryY=0.044;entryDx=0;entryDy=0;entryPerimeter=0;" edge="1" parent="1" source="CEb5WgZ9aHTCP-mgNfgS-109" target="R4TSVdhuAFYHziErIx7F-6">
          <mxGeometry relative="1" as="geometry" />
        </mxCell>
        <mxCell id="BTyps2MNp-c__5Y06lRA-202" style="edgeStyle=orthogonalEdgeStyle;rounded=0;orthogonalLoop=1;jettySize=auto;html=1;exitX=0.5;exitY=1;exitDx=0;exitDy=0;entryX=0.625;entryY=-0.067;entryDx=0;entryDy=0;entryPerimeter=0;" edge="1" parent="1" source="CEb5WgZ9aHTCP-mgNfgS-108" target="R4TSVdhuAFYHziErIx7F-6">
          <mxGeometry relative="1" as="geometry" />
        </mxCell>
        <mxCell id="BTyps2MNp-c__5Y06lRA-203" style="edgeStyle=orthogonalEdgeStyle;rounded=0;orthogonalLoop=1;jettySize=auto;html=1;exitX=0;exitY=1;exitDx=0;exitDy=0;entryX=0.85;entryY=0;entryDx=0;entryDy=0;entryPerimeter=0;" edge="1" parent="1" source="CEb5WgZ9aHTCP-mgNfgS-107" target="R4TSVdhuAFYHziErIx7F-6">
          <mxGeometry relative="1" as="geometry" />
        </mxCell>
        <mxCell id="BTyps2MNp-c__5Y06lRA-206" style="edgeStyle=orthogonalEdgeStyle;rounded=0;orthogonalLoop=1;jettySize=auto;html=1;exitX=0;exitY=0.5;exitDx=0;exitDy=0;entryX=0.933;entryY=1;entryDx=0;entryDy=0;entryPerimeter=0;" edge="1" parent="1" source="CEb5WgZ9aHTCP-mgNfgS-110" target="R4TSVdhuAFYHziErIx7F-6">
          <mxGeometry relative="1" as="geometry" />
        </mxCell>
        <mxCell id="BTyps2MNp-c__5Y06lRA-207" style="edgeStyle=orthogonalEdgeStyle;rounded=0;orthogonalLoop=1;jettySize=auto;html=1;exitX=0;exitY=0.5;exitDx=0;exitDy=0;entryX=0.95;entryY=0.956;entryDx=0;entryDy=0;entryPerimeter=0;" edge="1" parent="1" source="CEb5WgZ9aHTCP-mgNfgS-104" target="R4TSVdhuAFYHziErIx7F-6">
          <mxGeometry relative="1" as="geometry" />
        </mxCell>
        <mxCell id="BTyps2MNp-c__5Y06lRA-210" style="edgeStyle=orthogonalEdgeStyle;rounded=0;orthogonalLoop=1;jettySize=auto;html=1;exitX=1;exitY=1;exitDx=0;exitDy=0;entryX=0.448;entryY=-0.025;entryDx=0;entryDy=0;entryPerimeter=0;" edge="1" parent="1" source="R4TSVdhuAFYHziErIx7F-64" target="R4TSVdhuAFYHziErIx7F-3">
          <mxGeometry relative="1" as="geometry" />
        </mxCell>
        <mxCell id="BTyps2MNp-c__5Y06lRA-211" value="Have" style="rhombus;whiteSpace=wrap;html=1;fillColor=#FFFF33;" vertex="1" parent="1">
          <mxGeometry x="480" y="-235" width="80" height="80" as="geometry" />
        </mxCell>
        <mxCell id="BTyps2MNp-c__5Y06lRA-213" style="edgeStyle=orthogonalEdgeStyle;rounded=0;orthogonalLoop=1;jettySize=auto;html=1;exitX=0.5;exitY=1;exitDx=0;exitDy=0;entryX=0.648;entryY=-0.025;entryDx=0;entryDy=0;entryPerimeter=0;" edge="1" parent="1" source="BTyps2MNp-c__5Y06lRA-211" target="R4TSVdhuAFYHziErIx7F-3">
          <mxGeometry relative="1" as="geometry" />
        </mxCell>
        <mxCell id="BTyps2MNp-c__5Y06lRA-215" value="1" style="text;html=1;align=center;verticalAlign=middle;resizable=0;points=[];autosize=1;strokeColor=none;fillColor=none;" vertex="1" parent="1">
          <mxGeometry x="515" y="-272" width="30" height="30" as="geometry" />
        </mxCell>
        <mxCell id="BTyps2MNp-c__5Y06lRA-216" value="N" style="text;html=1;align=center;verticalAlign=middle;resizable=0;points=[];autosize=1;strokeColor=none;fillColor=none;" vertex="1" parent="1">
          <mxGeometry x="515" y="-162" width="30" height="30" as="geometry" />
        </mxCell>
        <mxCell id="BTyps2MNp-c__5Y06lRA-1240" style="edgeStyle=orthogonalEdgeStyle;rounded=0;orthogonalLoop=1;jettySize=auto;html=1;exitX=0.5;exitY=1;exitDx=0;exitDy=0;entryX=0.25;entryY=0;entryDx=0;entryDy=0;" edge="1" parent="1" source="BTyps2MNp-c__5Y06lRA-217" target="R4TSVdhuAFYHziErIx7F-7">
          <mxGeometry relative="1" as="geometry" />
        </mxCell>
        <mxCell id="BTyps2MNp-c__5Y06lRA-217" value="&lt;u&gt;Health Facilities Count&lt;/u&gt;" style="ellipse;whiteSpace=wrap;html=1;" vertex="1" parent="1">
          <mxGeometry x="550" y="-670" width="100" height="50" as="geometry" />
        </mxCell>
        <mxCell id="BTyps2MNp-c__5Y06lRA-1247" style="edgeStyle=orthogonalEdgeStyle;rounded=0;orthogonalLoop=1;jettySize=auto;html=1;exitX=0;exitY=0;exitDx=0;exitDy=0;entryX=0.75;entryY=1;entryDx=0;entryDy=0;" edge="1" parent="1" source="BTyps2MNp-c__5Y06lRA-218" target="R4TSVdhuAFYHziErIx7F-7">
          <mxGeometry relative="1" as="geometry" />
        </mxCell>
        <mxCell id="BTyps2MNp-c__5Y06lRA-218" value="&lt;u&gt;Population&lt;/u&gt;" style="ellipse;whiteSpace=wrap;html=1;" vertex="1" parent="1">
          <mxGeometry x="710" y="-410" width="70" height="30" as="geometry" />
        </mxCell>
        <mxCell id="BTyps2MNp-c__5Y06lRA-1238" style="edgeStyle=orthogonalEdgeStyle;rounded=0;orthogonalLoop=1;jettySize=auto;html=1;exitX=1;exitY=1;exitDx=0;exitDy=0;entryX=0;entryY=0;entryDx=0;entryDy=0;" edge="1" parent="1" source="BTyps2MNp-c__5Y06lRA-219" target="R4TSVdhuAFYHziErIx7F-7">
          <mxGeometry relative="1" as="geometry" />
        </mxCell>
        <mxCell id="BTyps2MNp-c__5Y06lRA-219" value="&lt;u&gt;Reported Cases&lt;/u&gt;" style="ellipse;whiteSpace=wrap;html=1;" vertex="1" parent="1">
          <mxGeometry x="500" y="-580" width="83.12" height="40" as="geometry" />
        </mxCell>
        <mxCell id="BTyps2MNp-c__5Y06lRA-237" style="edgeStyle=orthogonalEdgeStyle;rounded=0;orthogonalLoop=1;jettySize=auto;html=1;exitX=1;exitY=1;exitDx=0;exitDy=0;entryX=0.033;entryY=0;entryDx=0;entryDy=0;entryPerimeter=0;" edge="1" parent="1" source="BTyps2MNp-c__5Y06lRA-220" target="R4TSVdhuAFYHziErIx7F-8">
          <mxGeometry relative="1" as="geometry">
            <Array as="points">
              <mxPoint x="325" y="-704" />
              <mxPoint x="325" y="-690" />
              <mxPoint x="345" y="-690" />
              <mxPoint x="345" y="-660" />
            </Array>
          </mxGeometry>
        </mxCell>
        <mxCell id="BTyps2MNp-c__5Y06lRA-220" value="Cases per 1000 people" style="ellipse;whiteSpace=wrap;html=1;" vertex="1" parent="1">
          <mxGeometry x="250" y="-740" width="70" height="40" as="geometry" />
        </mxCell>
        <mxCell id="BTyps2MNp-c__5Y06lRA-221" value="&lt;u&gt;Data ID&lt;/u&gt;" style="ellipse;whiteSpace=wrap;html=1;" vertex="1" parent="1">
          <mxGeometry x="415" y="-740" width="70" height="30" as="geometry" />
        </mxCell>
        <mxCell id="BTyps2MNp-c__5Y06lRA-222" value="Recorded Data" style="ellipse;whiteSpace=wrap;html=1;" vertex="1" parent="1">
          <mxGeometry x="330" y="-750" width="70" height="40" as="geometry" />
        </mxCell>
        <mxCell id="BTyps2MNp-c__5Y06lRA-240" style="edgeStyle=orthogonalEdgeStyle;rounded=0;orthogonalLoop=1;jettySize=auto;html=1;exitX=1;exitY=0.5;exitDx=0;exitDy=0;entryX=0;entryY=0.5;entryDx=0;entryDy=0;" edge="1" parent="1" source="BTyps2MNp-c__5Y06lRA-223" target="R4TSVdhuAFYHziErIx7F-8">
          <mxGeometry relative="1" as="geometry" />
        </mxCell>
        <mxCell id="BTyps2MNp-c__5Y06lRA-223" value="Average Temerature" style="ellipse;whiteSpace=wrap;html=1;" vertex="1" parent="1">
          <mxGeometry x="200" y="-660" width="80" height="40" as="geometry" />
        </mxCell>
        <mxCell id="BTyps2MNp-c__5Y06lRA-238" style="edgeStyle=orthogonalEdgeStyle;rounded=0;orthogonalLoop=1;jettySize=auto;html=1;exitX=1;exitY=1;exitDx=0;exitDy=0;entryX=0;entryY=0.25;entryDx=0;entryDy=0;" edge="1" parent="1" source="BTyps2MNp-c__5Y06lRA-224" target="R4TSVdhuAFYHziErIx7F-8">
          <mxGeometry relative="1" as="geometry" />
        </mxCell>
        <mxCell id="BTyps2MNp-c__5Y06lRA-224" value="Rainfall" style="ellipse;whiteSpace=wrap;html=1;" vertex="1" parent="1">
          <mxGeometry x="207.5" y="-700" width="70" height="30" as="geometry" />
        </mxCell>
        <mxCell id="BTyps2MNp-c__5Y06lRA-225" value="Location ID" style="ellipse;whiteSpace=wrap;html=1;" vertex="1" parent="1">
          <mxGeometry x="490" y="-730" width="70" height="30" as="geometry" />
        </mxCell>
        <mxCell id="BTyps2MNp-c__5Y06lRA-226" value="Added By" style="ellipse;whiteSpace=wrap;html=1;" vertex="1" parent="1">
          <mxGeometry x="375" y="-570" width="70" height="30" as="geometry" />
        </mxCell>
        <mxCell id="BTyps2MNp-c__5Y06lRA-227" value="Update Date" style="ellipse;whiteSpace=wrap;html=1;" vertex="1" parent="1">
          <mxGeometry x="295" y="-580" width="70" height="30" as="geometry" />
        </mxCell>
        <mxCell id="BTyps2MNp-c__5Y06lRA-1248" style="edgeStyle=orthogonalEdgeStyle;rounded=0;orthogonalLoop=1;jettySize=auto;html=1;exitX=0.5;exitY=0;exitDx=0;exitDy=0;" edge="1" parent="1" source="BTyps2MNp-c__5Y06lRA-228" target="R4TSVdhuAFYHziErIx7F-7">
          <mxGeometry relative="1" as="geometry" />
        </mxCell>
        <mxCell id="BTyps2MNp-c__5Y06lRA-228" value="&lt;u&gt;Coordinates&lt;/u&gt;" style="ellipse;whiteSpace=wrap;html=1;" vertex="1" parent="1">
          <mxGeometry x="620" y="-400" width="70" height="30" as="geometry" />
        </mxCell>
        <mxCell id="BTyps2MNp-c__5Y06lRA-1237" style="edgeStyle=orthogonalEdgeStyle;rounded=0;orthogonalLoop=1;jettySize=auto;html=1;exitX=1;exitY=0.5;exitDx=0;exitDy=0;entryX=0;entryY=0.25;entryDx=0;entryDy=0;" edge="1" parent="1" source="BTyps2MNp-c__5Y06lRA-231" target="R4TSVdhuAFYHziErIx7F-7">
          <mxGeometry relative="1" as="geometry" />
        </mxCell>
        <mxCell id="BTyps2MNp-c__5Y06lRA-231" value="Tracked" style="rhombus;whiteSpace=wrap;html=1;fillColor=#FFFF33;" vertex="1" parent="1">
          <mxGeometry x="445" y="-540" width="80" height="80" as="geometry" />
        </mxCell>
        <mxCell id="BTyps2MNp-c__5Y06lRA-1258" style="edgeStyle=orthogonalEdgeStyle;rounded=0;orthogonalLoop=1;jettySize=auto;html=1;exitX=1;exitY=0.5;exitDx=0;exitDy=0;entryX=0;entryY=0.75;entryDx=0;entryDy=0;" edge="1" parent="1" source="BTyps2MNp-c__5Y06lRA-232" target="R4TSVdhuAFYHziErIx7F-8">
          <mxGeometry relative="1" as="geometry">
            <Array as="points">
              <mxPoint x="248" y="-590" />
              <mxPoint x="302" y="-590" />
              <mxPoint x="302" y="-622" />
            </Array>
          </mxGeometry>
        </mxCell>
        <mxCell id="BTyps2MNp-c__5Y06lRA-232" value="Involve" style="rhombus;whiteSpace=wrap;html=1;rotation=-15;fillColor=#FFFF33;" vertex="1" parent="1">
          <mxGeometry x="150" y="-589.96" width="100" height="82.59" as="geometry" />
        </mxCell>
        <mxCell id="BTyps2MNp-c__5Y06lRA-233" style="edgeStyle=orthogonalEdgeStyle;rounded=0;orthogonalLoop=1;jettySize=auto;html=1;exitX=0.5;exitY=1;exitDx=0;exitDy=0;entryX=0.133;entryY=0.04;entryDx=0;entryDy=0;entryPerimeter=0;" edge="1" parent="1" source="BTyps2MNp-c__5Y06lRA-222" target="R4TSVdhuAFYHziErIx7F-8">
          <mxGeometry relative="1" as="geometry" />
        </mxCell>
        <mxCell id="BTyps2MNp-c__5Y06lRA-234" style="edgeStyle=orthogonalEdgeStyle;rounded=0;orthogonalLoop=1;jettySize=auto;html=1;exitX=0.5;exitY=1;exitDx=0;exitDy=0;entryX=0.7;entryY=0;entryDx=0;entryDy=0;entryPerimeter=0;" edge="1" parent="1" source="BTyps2MNp-c__5Y06lRA-221" target="R4TSVdhuAFYHziErIx7F-8">
          <mxGeometry relative="1" as="geometry" />
        </mxCell>
        <mxCell id="BTyps2MNp-c__5Y06lRA-241" style="edgeStyle=orthogonalEdgeStyle;rounded=0;orthogonalLoop=1;jettySize=auto;html=1;exitX=0.5;exitY=0;exitDx=0;exitDy=0;entryX=0.107;entryY=1.02;entryDx=0;entryDy=0;entryPerimeter=0;" edge="1" parent="1" source="BTyps2MNp-c__5Y06lRA-227" target="R4TSVdhuAFYHziErIx7F-8">
          <mxGeometry relative="1" as="geometry" />
        </mxCell>
        <mxCell id="BTyps2MNp-c__5Y06lRA-245" style="edgeStyle=orthogonalEdgeStyle;rounded=0;orthogonalLoop=1;jettySize=auto;html=1;exitX=0;exitY=0;exitDx=0;exitDy=0;entryX=0.44;entryY=1.02;entryDx=0;entryDy=0;entryPerimeter=0;" edge="1" parent="1" source="BTyps2MNp-c__5Y06lRA-226" target="R4TSVdhuAFYHziErIx7F-8">
          <mxGeometry relative="1" as="geometry" />
        </mxCell>
        <mxCell id="BTyps2MNp-c__5Y06lRA-248" value="N" style="text;html=1;align=center;verticalAlign=middle;resizable=0;points=[];autosize=1;strokeColor=none;fillColor=none;" vertex="1" parent="1">
          <mxGeometry x="515" y="-500" width="30" height="30" as="geometry" />
        </mxCell>
        <mxCell id="BTyps2MNp-c__5Y06lRA-249" value="1" style="text;html=1;align=center;verticalAlign=middle;resizable=0;points=[];autosize=1;strokeColor=none;fillColor=none;" vertex="1" parent="1">
          <mxGeometry x="455" y="-567.37" width="30" height="30" as="geometry" />
        </mxCell>
        <mxCell id="BTyps2MNp-c__5Y06lRA-1227" value="&lt;u&gt;Malaria Risk Level&lt;/u&gt;" style="ellipse;whiteSpace=wrap;html=1;" vertex="1" parent="1">
          <mxGeometry x="500" y="-460" width="110" height="40" as="geometry" />
        </mxCell>
        <mxCell id="BTyps2MNp-c__5Y06lRA-1228" value="ITN coverage" style="ellipse;whiteSpace=wrap;html=1;" vertex="1" parent="1">
          <mxGeometry x="510" y="-620" width="90" height="30" as="geometry" />
        </mxCell>
        <mxCell id="BTyps2MNp-c__5Y06lRA-1244" style="edgeStyle=orthogonalEdgeStyle;rounded=0;orthogonalLoop=1;jettySize=auto;html=1;exitX=0;exitY=0.5;exitDx=0;exitDy=0;entryX=1;entryY=0.25;entryDx=0;entryDy=0;" edge="1" parent="1" source="BTyps2MNp-c__5Y06lRA-1229" target="R4TSVdhuAFYHziErIx7F-7">
          <mxGeometry relative="1" as="geometry" />
        </mxCell>
        <mxCell id="BTyps2MNp-c__5Y06lRA-1229" value="Subcounty" style="ellipse;whiteSpace=wrap;html=1;" vertex="1" parent="1">
          <mxGeometry x="750" y="-537.37" width="80" height="30" as="geometry" />
        </mxCell>
        <mxCell id="BTyps2MNp-c__5Y06lRA-1230" value="Village" style="ellipse;whiteSpace=wrap;html=1;" vertex="1" parent="1">
          <mxGeometry x="720" y="-620" width="90" height="30" as="geometry" />
        </mxCell>
        <mxCell id="BTyps2MNp-c__5Y06lRA-1241" style="edgeStyle=orthogonalEdgeStyle;rounded=0;orthogonalLoop=1;jettySize=auto;html=1;exitX=0;exitY=1;exitDx=0;exitDy=0;entryX=0.5;entryY=0;entryDx=0;entryDy=0;" edge="1" parent="1" source="BTyps2MNp-c__5Y06lRA-1231" target="R4TSVdhuAFYHziErIx7F-7">
          <mxGeometry relative="1" as="geometry" />
        </mxCell>
        <mxCell id="BTyps2MNp-c__5Y06lRA-1231" value="&lt;u&gt;Location ID&lt;/u&gt;" style="ellipse;whiteSpace=wrap;html=1;" vertex="1" parent="1">
          <mxGeometry x="655" y="-660" width="85" height="40" as="geometry" />
        </mxCell>
        <mxCell id="BTyps2MNp-c__5Y06lRA-1232" value="Region" style="ellipse;whiteSpace=wrap;html=1;" vertex="1" parent="1">
          <mxGeometry x="750" y="-450" width="70" height="30" as="geometry" />
        </mxCell>
        <mxCell id="BTyps2MNp-c__5Y06lRA-1233" style="edgeStyle=orthogonalEdgeStyle;rounded=0;orthogonalLoop=1;jettySize=auto;html=1;exitX=0;exitY=1;exitDx=0;exitDy=0;entryX=0.847;entryY=0.04;entryDx=0;entryDy=0;entryPerimeter=0;" edge="1" parent="1" source="BTyps2MNp-c__5Y06lRA-225" target="R4TSVdhuAFYHziErIx7F-8">
          <mxGeometry relative="1" as="geometry" />
        </mxCell>
        <mxCell id="BTyps2MNp-c__5Y06lRA-1234" value="Parish" style="ellipse;whiteSpace=wrap;html=1;" vertex="1" parent="1">
          <mxGeometry x="755" y="-580" width="75" height="30" as="geometry" />
        </mxCell>
        <mxCell id="BTyps2MNp-c__5Y06lRA-1245" style="edgeStyle=orthogonalEdgeStyle;rounded=0;orthogonalLoop=1;jettySize=auto;html=1;exitX=0;exitY=0.5;exitDx=0;exitDy=0;entryX=1;entryY=0.75;entryDx=0;entryDy=0;" edge="1" parent="1" source="BTyps2MNp-c__5Y06lRA-1235" target="R4TSVdhuAFYHziErIx7F-7">
          <mxGeometry relative="1" as="geometry" />
        </mxCell>
        <mxCell id="BTyps2MNp-c__5Y06lRA-1235" value="County" style="ellipse;whiteSpace=wrap;html=1;" vertex="1" parent="1">
          <mxGeometry x="760" y="-490" width="70" height="30" as="geometry" />
        </mxCell>
        <mxCell id="BTyps2MNp-c__5Y06lRA-1239" style="edgeStyle=orthogonalEdgeStyle;rounded=0;orthogonalLoop=1;jettySize=auto;html=1;exitX=1;exitY=1;exitDx=0;exitDy=0;entryX=0.105;entryY=0;entryDx=0;entryDy=0;entryPerimeter=0;" edge="1" parent="1" source="BTyps2MNp-c__5Y06lRA-1228" target="R4TSVdhuAFYHziErIx7F-7">
          <mxGeometry relative="1" as="geometry" />
        </mxCell>
        <mxCell id="BTyps2MNp-c__5Y06lRA-1242" style="edgeStyle=orthogonalEdgeStyle;rounded=0;orthogonalLoop=1;jettySize=auto;html=1;exitX=0;exitY=0.5;exitDx=0;exitDy=0;entryX=0.828;entryY=0;entryDx=0;entryDy=0;entryPerimeter=0;" edge="1" parent="1" source="BTyps2MNp-c__5Y06lRA-1230" target="R4TSVdhuAFYHziErIx7F-7">
          <mxGeometry relative="1" as="geometry" />
        </mxCell>
        <mxCell id="BTyps2MNp-c__5Y06lRA-1243" style="edgeStyle=orthogonalEdgeStyle;rounded=0;orthogonalLoop=1;jettySize=auto;html=1;exitX=0;exitY=0.5;exitDx=0;exitDy=0;entryX=0.948;entryY=-0.025;entryDx=0;entryDy=0;entryPerimeter=0;" edge="1" parent="1" source="BTyps2MNp-c__5Y06lRA-1234" target="R4TSVdhuAFYHziErIx7F-7">
          <mxGeometry relative="1" as="geometry" />
        </mxCell>
        <mxCell id="BTyps2MNp-c__5Y06lRA-1246" style="edgeStyle=orthogonalEdgeStyle;rounded=0;orthogonalLoop=1;jettySize=auto;html=1;exitX=0;exitY=0.5;exitDx=0;exitDy=0;entryX=0.905;entryY=1.025;entryDx=0;entryDy=0;entryPerimeter=0;" edge="1" parent="1" source="BTyps2MNp-c__5Y06lRA-1232" target="R4TSVdhuAFYHziErIx7F-7">
          <mxGeometry relative="1" as="geometry" />
        </mxCell>
        <mxCell id="BTyps2MNp-c__5Y06lRA-1249" style="edgeStyle=orthogonalEdgeStyle;rounded=0;orthogonalLoop=1;jettySize=auto;html=1;exitX=1;exitY=0;exitDx=0;exitDy=0;entryX=0.097;entryY=1.025;entryDx=0;entryDy=0;entryPerimeter=0;" edge="1" parent="1" source="BTyps2MNp-c__5Y06lRA-1227" target="R4TSVdhuAFYHziErIx7F-7">
          <mxGeometry relative="1" as="geometry" />
        </mxCell>
        <mxCell id="BTyps2MNp-c__5Y06lRA-1251" value="&lt;u&gt;Outcome ID&lt;/u&gt;" style="ellipse;whiteSpace=wrap;html=1;" vertex="1" parent="1">
          <mxGeometry x="7.5" y="-610" width="82.5" height="40" as="geometry" />
        </mxCell>
        <mxCell id="BTyps2MNp-c__5Y06lRA-1263" style="edgeStyle=orthogonalEdgeStyle;rounded=0;orthogonalLoop=1;jettySize=auto;html=1;exitX=1;exitY=1;exitDx=0;exitDy=0;entryX=0;entryY=0.25;entryDx=0;entryDy=0;" edge="1" parent="1" source="BTyps2MNp-c__5Y06lRA-1252" target="R4TSVdhuAFYHziErIx7F-10">
          <mxGeometry relative="1" as="geometry" />
        </mxCell>
        <mxCell id="BTyps2MNp-c__5Y06lRA-1252" value="Outcome&amp;nbsp;&lt;div&gt;Description&lt;/div&gt;" style="ellipse;whiteSpace=wrap;html=1;" vertex="1" parent="1">
          <mxGeometry x="-160" y="-550" width="95" height="42.63" as="geometry" />
        </mxCell>
        <mxCell id="BTyps2MNp-c__5Y06lRA-1264" style="edgeStyle=orthogonalEdgeStyle;rounded=0;orthogonalLoop=1;jettySize=auto;html=1;exitX=1;exitY=0;exitDx=0;exitDy=0;entryX=0;entryY=0.75;entryDx=0;entryDy=0;" edge="1" parent="1" source="BTyps2MNp-c__5Y06lRA-1253" target="R4TSVdhuAFYHziErIx7F-10">
          <mxGeometry relative="1" as="geometry" />
        </mxCell>
        <mxCell id="BTyps2MNp-c__5Y06lRA-1253" value="&lt;u&gt;Date Added&lt;/u&gt;" style="ellipse;whiteSpace=wrap;html=1;" vertex="1" parent="1">
          <mxGeometry x="-160" y="-490" width="95" height="50" as="geometry" />
        </mxCell>
        <mxCell id="BTyps2MNp-c__5Y06lRA-1269" style="edgeStyle=orthogonalEdgeStyle;rounded=0;orthogonalLoop=1;jettySize=auto;html=1;exitX=0.5;exitY=0;exitDx=0;exitDy=0;entryX=1;entryY=0.75;entryDx=0;entryDy=0;" edge="1" parent="1" source="BTyps2MNp-c__5Y06lRA-1254" target="R4TSVdhuAFYHziErIx7F-10">
          <mxGeometry relative="1" as="geometry" />
        </mxCell>
        <mxCell id="BTyps2MNp-c__5Y06lRA-1254" value="&lt;u&gt;Update Date&lt;/u&gt;" style="ellipse;whiteSpace=wrap;html=1;" vertex="1" parent="1">
          <mxGeometry x="65" y="-480" width="95" height="40" as="geometry" />
        </mxCell>
        <mxCell id="BTyps2MNp-c__5Y06lRA-1255" value="&lt;u&gt;Added By&lt;/u&gt;" style="ellipse;whiteSpace=wrap;html=1;" vertex="1" parent="1">
          <mxGeometry x="-70" y="-450" width="90" height="50" as="geometry" />
        </mxCell>
        <mxCell id="BTyps2MNp-c__5Y06lRA-1256" value="Outcome Name" style="ellipse;whiteSpace=wrap;html=1;" vertex="1" parent="1">
          <mxGeometry x="-100" y="-600" width="80" height="40" as="geometry" />
        </mxCell>
        <mxCell id="BTyps2MNp-c__5Y06lRA-1259" value="1" style="text;html=1;align=center;verticalAlign=middle;resizable=0;points=[];autosize=1;strokeColor=none;fillColor=none;" vertex="1" parent="1">
          <mxGeometry x="128.75" y="-563.67" width="30" height="30" as="geometry" />
        </mxCell>
        <mxCell id="BTyps2MNp-c__5Y06lRA-1260" value="N" style="text;html=1;align=center;verticalAlign=middle;resizable=0;points=[];autosize=1;strokeColor=none;fillColor=none;" vertex="1" parent="1">
          <mxGeometry x="225" y="-602" width="30" height="30" as="geometry" />
        </mxCell>
        <mxCell id="BTyps2MNp-c__5Y06lRA-1261" style="edgeStyle=orthogonalEdgeStyle;rounded=0;orthogonalLoop=1;jettySize=auto;html=1;exitX=0.5;exitY=1;exitDx=0;exitDy=0;entryX=0.6;entryY=0.075;entryDx=0;entryDy=0;entryPerimeter=0;" edge="1" parent="1" source="BTyps2MNp-c__5Y06lRA-1251" target="R4TSVdhuAFYHziErIx7F-10">
          <mxGeometry relative="1" as="geometry" />
        </mxCell>
        <mxCell id="BTyps2MNp-c__5Y06lRA-1262" style="edgeStyle=orthogonalEdgeStyle;rounded=0;orthogonalLoop=1;jettySize=auto;html=1;exitX=1;exitY=1;exitDx=0;exitDy=0;entryX=0.144;entryY=0;entryDx=0;entryDy=0;entryPerimeter=0;" edge="1" parent="1" source="BTyps2MNp-c__5Y06lRA-1256" target="R4TSVdhuAFYHziErIx7F-10">
          <mxGeometry relative="1" as="geometry" />
        </mxCell>
        <mxCell id="BTyps2MNp-c__5Y06lRA-1265" style="edgeStyle=orthogonalEdgeStyle;rounded=0;orthogonalLoop=1;jettySize=auto;html=1;exitX=1;exitY=0;exitDx=0;exitDy=0;entryX=0.2;entryY=0.975;entryDx=0;entryDy=0;entryPerimeter=0;" edge="1" parent="1" source="BTyps2MNp-c__5Y06lRA-1255" target="R4TSVdhuAFYHziErIx7F-10">
          <mxGeometry relative="1" as="geometry" />
        </mxCell>
        <mxCell id="BTyps2MNp-c__5Y06lRA-1267" value="Result" style="rhombus;whiteSpace=wrap;html=1;fillColor=#FFFF33;" vertex="1" parent="1">
          <mxGeometry x="15" y="-425" width="80" height="60" as="geometry" />
        </mxCell>
        <mxCell id="BTyps2MNp-c__5Y06lRA-1268" style="edgeStyle=orthogonalEdgeStyle;rounded=0;orthogonalLoop=1;jettySize=auto;html=1;exitX=0;exitY=1;exitDx=0;exitDy=0;entryX=0.641;entryY=0.04;entryDx=0;entryDy=0;entryPerimeter=0;" edge="1" parent="1" source="BTyps2MNp-c__5Y06lRA-7" target="BTyps2MNp-c__5Y06lRA-1">
          <mxGeometry relative="1" as="geometry" />
        </mxCell>
        <mxCell id="BTyps2MNp-c__5Y06lRA-1271" style="edgeStyle=orthogonalEdgeStyle;rounded=0;orthogonalLoop=1;jettySize=auto;html=1;exitX=0.5;exitY=0;exitDx=0;exitDy=0;entryX=0.688;entryY=1.025;entryDx=0;entryDy=0;entryPerimeter=0;" edge="1" parent="1" source="BTyps2MNp-c__5Y06lRA-1267" target="R4TSVdhuAFYHziErIx7F-10">
          <mxGeometry relative="1" as="geometry" />
        </mxCell>
        <mxCell id="BTyps2MNp-c__5Y06lRA-1272" value="N" style="text;html=1;align=center;verticalAlign=middle;resizable=0;points=[];autosize=1;strokeColor=none;fillColor=none;" vertex="1" parent="1">
          <mxGeometry x="47.5" y="-360" width="30" height="30" as="geometry" />
        </mxCell>
        <mxCell id="BTyps2MNp-c__5Y06lRA-1273" value="1" style="text;html=1;align=center;verticalAlign=middle;resizable=0;points=[];autosize=1;strokeColor=none;fillColor=none;" vertex="1" parent="1">
          <mxGeometry x="30" y="-450" width="30" height="30" as="geometry" />
        </mxCell>
        <mxCell id="BTyps2MNp-c__5Y06lRA-1282" style="edgeStyle=orthogonalEdgeStyle;rounded=0;orthogonalLoop=1;jettySize=auto;html=1;exitX=0;exitY=1;exitDx=0;exitDy=0;entryX=1;entryY=0.25;entryDx=0;entryDy=0;" edge="1" parent="1" source="CEb5WgZ9aHTCP-mgNfgS-27" target="R4TSVdhuAFYHziErIx7F-12">
          <mxGeometry relative="1" as="geometry" />
        </mxCell>
        <mxCell id="CEb5WgZ9aHTCP-mgNfgS-27" value="Treatment Name" style="ellipse;whiteSpace=wrap;html=1;" parent="1" vertex="1">
          <mxGeometry x="197.5" y="420" width="67.5" height="40" as="geometry" />
        </mxCell>
        <mxCell id="BTyps2MNp-c__5Y06lRA-1283" style="edgeStyle=orthogonalEdgeStyle;rounded=0;orthogonalLoop=1;jettySize=auto;html=1;exitX=0;exitY=1;exitDx=0;exitDy=0;entryX=0.75;entryY=0;entryDx=0;entryDy=0;" edge="1" parent="1" source="CEb5WgZ9aHTCP-mgNfgS-21" target="R4TSVdhuAFYHziErIx7F-12">
          <mxGeometry relative="1" as="geometry" />
        </mxCell>
        <mxCell id="CEb5WgZ9aHTCP-mgNfgS-21" value="Treatment&lt;div&gt;Desc&lt;/div&gt;" style="ellipse;whiteSpace=wrap;html=1;" parent="1" vertex="1">
          <mxGeometry x="155" y="370" width="80" height="42" as="geometry" />
        </mxCell>
        <mxCell id="BTyps2MNp-c__5Y06lRA-1281" style="edgeStyle=orthogonalEdgeStyle;rounded=0;orthogonalLoop=1;jettySize=auto;html=1;exitX=0;exitY=0.5;exitDx=0;exitDy=0;entryX=0.853;entryY=0.975;entryDx=0;entryDy=0;entryPerimeter=0;" edge="1" parent="1" source="CEb5WgZ9aHTCP-mgNfgS-22" target="R4TSVdhuAFYHziErIx7F-12">
          <mxGeometry relative="1" as="geometry" />
        </mxCell>
        <mxCell id="BTyps2MNp-c__5Y06lRA-1286" value="Malaria Cases by region" style="whiteSpace=wrap;html=1;rotation=-30;dashed=1;fillColor=#00FF80;" vertex="1" parent="1">
          <mxGeometry x="359.12" y="-267" width="151.76" height="20" as="geometry" />
        </mxCell>
        <mxCell id="BTyps2MNp-c__5Y06lRA-1287" style="edgeStyle=orthogonalEdgeStyle;rounded=0;orthogonalLoop=1;jettySize=auto;html=1;exitX=0;exitY=0.25;exitDx=0;exitDy=0;entryX=0.842;entryY=0.043;entryDx=0;entryDy=0;entryPerimeter=0;dashed=1;" edge="1" parent="1" source="BTyps2MNp-c__5Y06lRA-1286" target="BTyps2MNp-c__5Y06lRA-52">
          <mxGeometry relative="1" as="geometry" />
        </mxCell>
        <mxCell id="BTyps2MNp-c__5Y06lRA-1294" value="&amp;nbsp;" style="text;html=1;align=center;verticalAlign=middle;resizable=0;points=[];autosize=1;strokeColor=none;fillColor=none;" vertex="1" parent="1">
          <mxGeometry x="-75" y="-802" width="30" height="30" as="geometry" />
        </mxCell>
      </root>
    </mxGraphModel>
  </diagram>
</mxfile>
